G75*
%MOIN*%
%OFA0B0*%
%FSLAX25Y25*%
%IPPOS*%
%LPD*%
%AMOC8*
5,1,8,0,0,1.08239X$1,22.5*
%
%ADD10R,0.03550X0.03550*%
%ADD11R,0.04337X0.04731*%
%ADD12R,0.04731X0.04337*%
%ADD13R,0.07408X0.04416*%
%ADD14R,0.05912X0.06699*%
%ADD15R,0.01772X0.03937*%
%ADD16R,0.02565X0.05124*%
%ADD17R,0.05124X0.02565*%
%ADD18R,0.10243X0.08274*%
%ADD19R,0.13392X0.02369*%
%ADD20C,0.03943*%
%ADD21R,0.05912X0.04337*%
%ADD22R,0.05912X0.05912*%
%ADD23R,0.06400X0.06400*%
%ADD24OC8,0.06400*%
%ADD25R,0.02132X0.04928*%
%ADD26R,0.02880X0.04928*%
%ADD27R,0.02762X0.09061*%
%ADD28R,0.01778X0.06030*%
%ADD29R,0.06109X0.01463*%
%ADD30R,0.01463X0.06109*%
%ADD31R,0.05550X0.05550*%
%ADD32C,0.05550*%
%ADD33R,0.08400X0.08400*%
%ADD34C,0.12998*%
%ADD35R,0.07093X0.04337*%
%ADD36R,0.06825X0.06825*%
%ADD37C,0.06825*%
D10*
X0114220Y0235814D03*
X0120126Y0235814D03*
X0177213Y0235814D03*
X0183118Y0235814D03*
X0240205Y0235814D03*
X0246110Y0235814D03*
X0303197Y0235814D03*
X0309102Y0235814D03*
D11*
X0292764Y0235814D03*
X0286071Y0235814D03*
X0229772Y0235814D03*
X0223079Y0235814D03*
X0200244Y0235814D03*
X0193551Y0235814D03*
X0204181Y0203058D03*
X0204181Y0196365D03*
X0205260Y0175499D03*
X0211953Y0175499D03*
X0231681Y0176495D03*
X0231681Y0169802D03*
X0261994Y0164308D03*
X0261994Y0157615D03*
X0261994Y0148058D03*
X0261994Y0141365D03*
X0232931Y0141365D03*
X0232931Y0148058D03*
X0190431Y0138058D03*
X0190431Y0131365D03*
X0177528Y0114711D03*
X0170835Y0114711D03*
X0162528Y0114711D03*
X0155835Y0114711D03*
X0170835Y0104711D03*
X0177528Y0104711D03*
X0185835Y0104711D03*
X0192528Y0104711D03*
X0192528Y0082524D03*
X0185835Y0082524D03*
X0177528Y0082524D03*
X0170835Y0082524D03*
X0119181Y0111365D03*
X0119181Y0118058D03*
X0230835Y0104711D03*
X0237528Y0104711D03*
X0245835Y0104711D03*
X0252528Y0104711D03*
X0261535Y0079211D03*
X0268228Y0079211D03*
X0303185Y0131286D03*
X0309878Y0131286D03*
X0309878Y0141086D03*
X0303185Y0141086D03*
X0303185Y0148074D03*
X0309878Y0148074D03*
X0309878Y0154749D03*
X0303185Y0154749D03*
X0303185Y0161211D03*
X0309878Y0161211D03*
X0309878Y0171424D03*
X0303185Y0171424D03*
X0137252Y0235814D03*
X0130559Y0235814D03*
X0128403Y0196974D03*
X0121710Y0196974D03*
D12*
X0121644Y0189182D03*
X0128337Y0189182D03*
X0143335Y0199711D03*
X0150028Y0199711D03*
X0097306Y0202665D03*
X0089181Y0202665D03*
X0089181Y0209358D03*
X0097306Y0209358D03*
X0120680Y0160560D03*
X0128805Y0160560D03*
X0128805Y0153867D03*
X0120680Y0153867D03*
X0137710Y0151899D03*
X0144403Y0151899D03*
X0144403Y0160024D03*
X0137710Y0160024D03*
X0128869Y0136495D03*
X0120694Y0136458D03*
X0120694Y0129765D03*
X0128869Y0129802D03*
X0140835Y0127524D03*
X0147528Y0127524D03*
X0155835Y0127524D03*
X0162528Y0127524D03*
X0201056Y0113058D03*
X0201056Y0106365D03*
X0209181Y0106365D03*
X0209181Y0113058D03*
X0209181Y0098058D03*
X0209181Y0091365D03*
X0209181Y0083058D03*
X0209181Y0076365D03*
X0177528Y0071899D03*
X0170835Y0071899D03*
X0170835Y0094711D03*
X0177528Y0094711D03*
X0261535Y0069411D03*
X0268228Y0069411D03*
X0276235Y0125761D03*
X0282928Y0125761D03*
X0212528Y0164711D03*
X0205835Y0164711D03*
X0223706Y0169840D03*
X0223706Y0176533D03*
X0261994Y0176808D03*
X0261994Y0170115D03*
D13*
X0096681Y0103215D03*
X0096681Y0096207D03*
D14*
X0105744Y0093806D03*
X0105744Y0105617D03*
X0182931Y0128806D03*
X0182931Y0140617D03*
D15*
X0239004Y0173196D03*
X0241563Y0173196D03*
X0244122Y0173196D03*
X0246681Y0173196D03*
X0249240Y0173196D03*
X0251799Y0173196D03*
X0254358Y0173196D03*
X0254358Y0196227D03*
X0251799Y0196227D03*
X0249240Y0196227D03*
X0246681Y0196227D03*
X0244122Y0196227D03*
X0241563Y0196227D03*
X0239004Y0196227D03*
D16*
X0128896Y0180459D03*
X0121416Y0180459D03*
X0121416Y0170223D03*
X0125156Y0170223D03*
X0128896Y0170223D03*
X0120109Y0104830D03*
X0112628Y0104830D03*
X0112628Y0094593D03*
X0116369Y0094593D03*
X0120109Y0094593D03*
D17*
X0154063Y0095952D03*
X0154063Y0092211D03*
X0154063Y0088471D03*
X0164299Y0088471D03*
X0164299Y0095952D03*
X0164299Y0075639D03*
X0154063Y0075639D03*
X0154063Y0071899D03*
X0154063Y0068159D03*
X0164299Y0068159D03*
D18*
X0084693Y0133648D03*
X0063039Y0133648D03*
X0063039Y0168688D03*
X0084693Y0168688D03*
D19*
X0087055Y0157467D03*
X0087055Y0154318D03*
X0087055Y0151168D03*
X0087055Y0148018D03*
X0087055Y0144869D03*
D20*
X0074850Y0142507D03*
X0074850Y0159830D03*
D21*
X0219850Y0098452D03*
X0228512Y0094711D03*
X0219850Y0090971D03*
X0219850Y0083452D03*
X0228512Y0079711D03*
X0219850Y0075971D03*
D22*
X0236701Y0079711D03*
X0251661Y0079711D03*
X0251661Y0094711D03*
X0236701Y0094711D03*
X0091661Y0189711D03*
X0076701Y0189711D03*
D23*
X0066369Y0189711D03*
X0336740Y0131168D03*
D24*
X0326740Y0131168D03*
X0326740Y0141168D03*
X0336740Y0141168D03*
X0336740Y0151168D03*
X0326740Y0151168D03*
X0326740Y0161168D03*
X0336740Y0161168D03*
X0336740Y0171168D03*
X0326740Y0171168D03*
X0066369Y0199711D03*
D25*
X0280106Y0188550D03*
X0283256Y0188550D03*
X0283256Y0180873D03*
X0280106Y0180873D03*
D26*
X0276583Y0180873D03*
X0286780Y0180873D03*
X0286780Y0188550D03*
X0276583Y0188550D03*
D27*
X0254806Y0154948D03*
X0249806Y0154948D03*
X0244806Y0154948D03*
X0239806Y0154948D03*
X0225744Y0154948D03*
X0220744Y0154948D03*
X0215744Y0154948D03*
X0210744Y0154948D03*
X0210744Y0134475D03*
X0215744Y0134475D03*
X0220744Y0134475D03*
X0225744Y0134475D03*
X0239806Y0134475D03*
X0244806Y0134475D03*
X0249806Y0134475D03*
X0254806Y0134475D03*
D28*
X0267665Y0134081D03*
X0270224Y0134081D03*
X0272783Y0134081D03*
X0275343Y0134081D03*
X0277902Y0134081D03*
X0280461Y0134081D03*
X0283020Y0134081D03*
X0285579Y0134081D03*
X0288138Y0134081D03*
X0290697Y0134081D03*
X0290697Y0155341D03*
X0288138Y0155341D03*
X0285579Y0155341D03*
X0283020Y0155341D03*
X0280461Y0155341D03*
X0277902Y0155341D03*
X0275343Y0155341D03*
X0272783Y0155341D03*
X0270224Y0155341D03*
X0267665Y0155341D03*
D29*
X0195264Y0162152D03*
X0195264Y0164121D03*
X0195264Y0166089D03*
X0195264Y0168058D03*
X0195264Y0170026D03*
X0195264Y0171995D03*
X0195264Y0173963D03*
X0195264Y0175932D03*
X0195264Y0177900D03*
X0195264Y0179869D03*
X0195264Y0181837D03*
X0195264Y0183806D03*
X0195264Y0185774D03*
X0195264Y0187743D03*
X0195264Y0189711D03*
X0195264Y0191680D03*
X0150972Y0191680D03*
X0150972Y0189711D03*
X0150972Y0187743D03*
X0150972Y0185774D03*
X0150972Y0183806D03*
X0150972Y0181837D03*
X0150972Y0179869D03*
X0150972Y0177900D03*
X0150972Y0175932D03*
X0150972Y0173963D03*
X0150972Y0171995D03*
X0150972Y0170026D03*
X0150972Y0168058D03*
X0150972Y0166089D03*
X0150972Y0164121D03*
X0150972Y0162152D03*
D30*
X0158354Y0154770D03*
X0160323Y0154770D03*
X0162291Y0154770D03*
X0164260Y0154770D03*
X0166228Y0154770D03*
X0168197Y0154770D03*
X0170165Y0154770D03*
X0172134Y0154770D03*
X0174102Y0154770D03*
X0176071Y0154770D03*
X0178039Y0154770D03*
X0180008Y0154770D03*
X0181976Y0154770D03*
X0183945Y0154770D03*
X0185913Y0154770D03*
X0187882Y0154770D03*
X0187882Y0199062D03*
X0185913Y0199062D03*
X0183945Y0199062D03*
X0181976Y0199062D03*
X0180008Y0199062D03*
X0178039Y0199062D03*
X0176071Y0199062D03*
X0174102Y0199062D03*
X0172134Y0199062D03*
X0170165Y0199062D03*
X0168197Y0199062D03*
X0166228Y0199062D03*
X0164260Y0199062D03*
X0162291Y0199062D03*
X0160323Y0199062D03*
X0158354Y0199062D03*
D31*
X0089181Y0224711D03*
X0296931Y0113611D03*
D32*
X0296931Y0103611D03*
X0286931Y0103611D03*
X0276931Y0103611D03*
X0276931Y0113611D03*
X0286931Y0113611D03*
X0099181Y0224711D03*
X0099181Y0234711D03*
X0089181Y0234711D03*
D33*
X0144181Y0139711D03*
X0164181Y0139711D03*
D34*
X0069929Y0070459D03*
X0069929Y0231877D03*
X0353394Y0231877D03*
X0353394Y0070459D03*
D35*
X0302803Y0066916D03*
X0302803Y0081877D03*
X0278000Y0081877D03*
X0278000Y0066916D03*
X0145323Y0066916D03*
X0145323Y0081877D03*
X0120520Y0081877D03*
X0120520Y0066916D03*
D36*
X0154281Y0214811D03*
D37*
X0164281Y0214811D03*
X0174281Y0214811D03*
X0184281Y0214811D03*
M02*
