%
M48
M72
T01C0.0200
T02C0.0230
T03C0.0315
T04C0.0354
T05C0.0400
T06C0.0402
T07C0.1260
%
T01
X33593Y5961
X36533Y21396
X33593Y24336
X8603Y5961
X5908Y8656
X8668Y11221
X8668Y11721
X8668Y12221
X9668Y12221
X9668Y11721
X9668Y11221
X10563Y11106
X11324Y11096
X11918Y12346
X13106Y12221
X14106Y12221
X14918Y11471
X16262Y12252
X17606Y12034
X18293Y12252
X19138Y11841
X19146Y11306
X18168Y10971
X19262Y9940
X20106Y9971
X21418Y9096
X20106Y8346
X19231Y7596
X18606Y7596
X18606Y7127
X21098Y5961
X21418Y7596
X18262Y9471
X15918Y9221
X15418Y8471
X15953Y7186
X14856Y7159
X15418Y6471
X13418Y6690
X13258Y5961
X22568Y10126
X24168Y10471
X26243Y10371
X25166Y8471
X25572Y6782
X28938Y7066
X28938Y5961
X34433Y8986
X36533Y8656
X29809Y13119
X29074Y12565
X27076Y12589
X26199Y13471
X25293Y14252
X24981Y14815
X24481Y14721
X24231Y14096
X23293Y13471
X24481Y12721
X21819Y12721
X21574Y14065
X20608Y13801
X19293Y12659
X18262Y14621
X17793Y16034
X17777Y16664
X17137Y16127
X16793Y16346
X16324Y16159
X15324Y15846
X14449Y16909
X13918Y16721
X12499Y16512
X13106Y14909
X11918Y14815
X10293Y14721
X10287Y14327
X10293Y13909
X11512Y13659
X8099Y14056
X7731Y13784
X7356Y13784
X7356Y14690
X7731Y14690
X9231Y16471
X9731Y16471
X9731Y16971
X9731Y17471
X9231Y17471
X9231Y16971
X9231Y17971
X9731Y17971
X11637Y18909
X13231Y18377
X13418Y18971
X13793Y20002
X15637Y19190
X15668Y18596
X16481Y18940
X16637Y19346
X17606Y18846
X17918Y18284
X18408Y18701
X18199Y19346
X19012Y19377
X19481Y19909
X19762Y20190
X18606Y20471
X21098Y20171
X22078Y19436
X22568Y20171
X23512Y19627
X24356Y18877
X23949Y18471
X25168Y17971
X26733Y17966
X27168Y18284
X27387Y17471
X27668Y17127
X28012Y16846
X28324Y16534
X28637Y16221
X29762Y16190
X29762Y16627
X29762Y17159
X31633Y16741
X31633Y16006
X29767Y14810
X29762Y14096
X28953Y14921
X28449Y15002
X28302Y14650
X27921Y14499
X27731Y14127
X27387Y13909
X23606Y16159
X23637Y16846
X22168Y16315
X21856Y17034
X20481Y17096
X20637Y18284
X21168Y18315
X21387Y18659
X18824Y17752
X18543Y17471
X18918Y17190
X18574Y18096
X17146Y17684
X16812Y17692
X16471Y17692
X15981Y17284
X20608Y15271
X25753Y19926
X23430Y23581
X21098Y24336
X18902Y23581
X14178Y23581
X13258Y24336
X12603Y23581
X10168Y20226
X5908Y21641
X28938Y24336
X29729Y23581
X31878Y19926
X34928Y16101
X36533Y15026
T02
X21824Y17565
X18637Y16909
X19873Y15516
T03
X8918Y23471
X9918Y23471
X9918Y22471
X8918Y22471
X27693Y11361
X28693Y11361
X28693Y10361
X27693Y10361
X29693Y10361
X29693Y11361
T04
X7485Y14251
X7485Y15983
T05
X6637Y18971
X6637Y19971
X32674Y17117
X33674Y17117
X33674Y16117
X32674Y16117
X32674Y15117
X33674Y15117
X33674Y14117
X32674Y14117
X32674Y13117
X33674Y13117
T06
X18428Y21481
X17428Y21481
X16428Y21481
X15428Y21481
T07
X35339Y7046
X35339Y23188
X6993Y23188
X6993Y7046
M30
