G75*
%MOIN*%
%OFA0B0*%
%FSLAX25Y25*%
%IPPOS*%
%LPD*%
%AMOC8*
5,1,8,0,0,1.08239X$1,22.5*
%
%ADD10R,0.03550X0.03550*%
%ADD11C,0.03943*%
%ADD12R,0.06400X0.06400*%
%ADD13OC8,0.06400*%
%ADD14R,0.05550X0.05550*%
%ADD15C,0.05550*%
%ADD16C,0.12998*%
%ADD17R,0.06825X0.06825*%
%ADD18C,0.06825*%
D10*
X0114220Y0235814D03*
X0120126Y0235814D03*
X0177213Y0235814D03*
X0183118Y0235814D03*
X0240205Y0235814D03*
X0246110Y0235814D03*
X0303197Y0235814D03*
X0309102Y0235814D03*
D11*
X0074850Y0159830D03*
X0074850Y0142507D03*
D12*
X0066369Y0189711D03*
X0336740Y0131168D03*
D13*
X0326740Y0131168D03*
X0326740Y0141168D03*
X0336740Y0141168D03*
X0336740Y0151168D03*
X0326740Y0151168D03*
X0326740Y0161168D03*
X0336740Y0161168D03*
X0336740Y0171168D03*
X0326740Y0171168D03*
X0066369Y0199711D03*
D14*
X0089181Y0224711D03*
X0296931Y0113611D03*
D15*
X0296931Y0103611D03*
X0286931Y0103611D03*
X0276931Y0103611D03*
X0276931Y0113611D03*
X0286931Y0113611D03*
X0099181Y0224711D03*
X0099181Y0234711D03*
X0089181Y0234711D03*
D16*
X0069929Y0070459D03*
X0069929Y0231877D03*
X0353394Y0231877D03*
X0353394Y0070459D03*
D17*
X0154281Y0214811D03*
D18*
X0164281Y0214811D03*
X0174281Y0214811D03*
X0184281Y0214811D03*
M02*
