G75*
%MOIN*%
%OFA0B0*%
%FSLAX25Y25*%
%IPPOS*%
%LPD*%
%AMOC8*
5,1,8,0,0,1.08239X$1,22.5*
%
%ADD10R,0.03150X0.03150*%
%ADD11R,0.03937X0.04331*%
%ADD12R,0.04331X0.03937*%
%ADD13R,0.07008X0.04016*%
%ADD14R,0.05512X0.06299*%
%ADD15R,0.01378X0.03543*%
%ADD16R,0.02165X0.04724*%
%ADD17R,0.04724X0.02165*%
%ADD18R,0.09843X0.07874*%
%ADD19R,0.12992X0.01969*%
%ADD20C,0.00000*%
%ADD21R,0.05512X0.03937*%
%ADD22R,0.05512X0.05512*%
%ADD23R,0.01732X0.04528*%
%ADD24R,0.02480X0.04528*%
%ADD25R,0.02362X0.08661*%
%ADD26R,0.01378X0.05630*%
%ADD27R,0.05709X0.01063*%
%ADD28R,0.01063X0.05709*%
%ADD29R,0.08000X0.08000*%
%ADD30R,0.06693X0.03937*%
D10*
X0114220Y0235814D03*
X0120126Y0235814D03*
X0177213Y0235814D03*
X0183118Y0235814D03*
X0240205Y0235814D03*
X0246110Y0235814D03*
X0303197Y0235814D03*
X0309102Y0235814D03*
D11*
X0292764Y0235814D03*
X0286071Y0235814D03*
X0229772Y0235814D03*
X0223079Y0235814D03*
X0200244Y0235814D03*
X0193551Y0235814D03*
X0204181Y0203058D03*
X0204181Y0196365D03*
X0205260Y0175499D03*
X0211953Y0175499D03*
X0231681Y0176495D03*
X0231681Y0169802D03*
X0261994Y0164308D03*
X0261994Y0157615D03*
X0261994Y0148058D03*
X0261994Y0141365D03*
X0232931Y0141365D03*
X0232931Y0148058D03*
X0190431Y0138058D03*
X0190431Y0131365D03*
X0177528Y0114711D03*
X0170835Y0114711D03*
X0162528Y0114711D03*
X0155835Y0114711D03*
X0170835Y0104711D03*
X0177528Y0104711D03*
X0185835Y0104711D03*
X0192528Y0104711D03*
X0192528Y0082524D03*
X0185835Y0082524D03*
X0177528Y0082524D03*
X0170835Y0082524D03*
X0119181Y0111365D03*
X0119181Y0118058D03*
X0230835Y0104711D03*
X0237528Y0104711D03*
X0245835Y0104711D03*
X0252528Y0104711D03*
X0261535Y0079211D03*
X0268228Y0079211D03*
X0303185Y0131286D03*
X0309878Y0131286D03*
X0309878Y0141086D03*
X0303185Y0141086D03*
X0303185Y0148074D03*
X0309878Y0148074D03*
X0309878Y0154749D03*
X0303185Y0154749D03*
X0303185Y0161211D03*
X0309878Y0161211D03*
X0309878Y0171424D03*
X0303185Y0171424D03*
X0137252Y0235814D03*
X0130559Y0235814D03*
X0128403Y0196974D03*
X0121710Y0196974D03*
D12*
X0121644Y0189182D03*
X0128337Y0189182D03*
X0143335Y0199711D03*
X0150028Y0199711D03*
X0097306Y0202665D03*
X0089181Y0202665D03*
X0089181Y0209358D03*
X0097306Y0209358D03*
X0120680Y0160560D03*
X0128805Y0160560D03*
X0128805Y0153867D03*
X0120680Y0153867D03*
X0137710Y0151899D03*
X0144403Y0151899D03*
X0144403Y0160024D03*
X0137710Y0160024D03*
X0128869Y0136495D03*
X0120694Y0136458D03*
X0120694Y0129765D03*
X0128869Y0129802D03*
X0140835Y0127524D03*
X0147528Y0127524D03*
X0155835Y0127524D03*
X0162528Y0127524D03*
X0201056Y0113058D03*
X0201056Y0106365D03*
X0209181Y0106365D03*
X0209181Y0113058D03*
X0209181Y0098058D03*
X0209181Y0091365D03*
X0209181Y0083058D03*
X0209181Y0076365D03*
X0177528Y0071899D03*
X0170835Y0071899D03*
X0170835Y0094711D03*
X0177528Y0094711D03*
X0261535Y0069411D03*
X0268228Y0069411D03*
X0276235Y0125761D03*
X0282928Y0125761D03*
X0212528Y0164711D03*
X0205835Y0164711D03*
X0223706Y0169840D03*
X0223706Y0176533D03*
X0261994Y0176808D03*
X0261994Y0170115D03*
D13*
X0096681Y0103215D03*
X0096681Y0096207D03*
D14*
X0105744Y0093806D03*
X0105744Y0105617D03*
X0182931Y0128806D03*
X0182931Y0140617D03*
D15*
X0239004Y0173196D03*
X0241563Y0173196D03*
X0244122Y0173196D03*
X0246681Y0173196D03*
X0249240Y0173196D03*
X0251799Y0173196D03*
X0254358Y0173196D03*
X0254358Y0196227D03*
X0251799Y0196227D03*
X0249240Y0196227D03*
X0246681Y0196227D03*
X0244122Y0196227D03*
X0241563Y0196227D03*
X0239004Y0196227D03*
D16*
X0128896Y0180459D03*
X0121416Y0180459D03*
X0121416Y0170223D03*
X0125156Y0170223D03*
X0128896Y0170223D03*
X0120109Y0104830D03*
X0112628Y0104830D03*
X0112628Y0094593D03*
X0116369Y0094593D03*
X0120109Y0094593D03*
D17*
X0154063Y0095952D03*
X0154063Y0092211D03*
X0154063Y0088471D03*
X0164299Y0088471D03*
X0164299Y0095952D03*
X0164299Y0075639D03*
X0154063Y0075639D03*
X0154063Y0071899D03*
X0154063Y0068159D03*
X0164299Y0068159D03*
D18*
X0084693Y0133648D03*
X0063039Y0133648D03*
X0063039Y0168688D03*
X0084693Y0168688D03*
D19*
X0087055Y0157467D03*
X0087055Y0154318D03*
X0087055Y0151168D03*
X0087055Y0148018D03*
X0087055Y0144869D03*
D20*
X0069929Y0054711D02*
X0353394Y0054711D01*
X0347095Y0070459D02*
X0347097Y0070617D01*
X0347103Y0070775D01*
X0347113Y0070933D01*
X0347127Y0071091D01*
X0347145Y0071248D01*
X0347166Y0071405D01*
X0347192Y0071561D01*
X0347222Y0071717D01*
X0347255Y0071872D01*
X0347293Y0072025D01*
X0347334Y0072178D01*
X0347379Y0072330D01*
X0347428Y0072481D01*
X0347481Y0072630D01*
X0347537Y0072778D01*
X0347597Y0072924D01*
X0347661Y0073069D01*
X0347729Y0073212D01*
X0347800Y0073354D01*
X0347874Y0073494D01*
X0347952Y0073631D01*
X0348034Y0073767D01*
X0348118Y0073901D01*
X0348207Y0074032D01*
X0348298Y0074161D01*
X0348393Y0074288D01*
X0348490Y0074413D01*
X0348591Y0074535D01*
X0348695Y0074654D01*
X0348802Y0074771D01*
X0348912Y0074885D01*
X0349025Y0074996D01*
X0349140Y0075105D01*
X0349258Y0075210D01*
X0349379Y0075312D01*
X0349502Y0075412D01*
X0349628Y0075508D01*
X0349756Y0075601D01*
X0349886Y0075691D01*
X0350019Y0075777D01*
X0350154Y0075861D01*
X0350290Y0075940D01*
X0350429Y0076017D01*
X0350570Y0076089D01*
X0350712Y0076159D01*
X0350856Y0076224D01*
X0351002Y0076286D01*
X0351149Y0076344D01*
X0351298Y0076399D01*
X0351448Y0076450D01*
X0351599Y0076497D01*
X0351751Y0076540D01*
X0351904Y0076579D01*
X0352059Y0076615D01*
X0352214Y0076646D01*
X0352370Y0076674D01*
X0352526Y0076698D01*
X0352683Y0076718D01*
X0352841Y0076734D01*
X0352998Y0076746D01*
X0353157Y0076754D01*
X0353315Y0076758D01*
X0353473Y0076758D01*
X0353631Y0076754D01*
X0353790Y0076746D01*
X0353947Y0076734D01*
X0354105Y0076718D01*
X0354262Y0076698D01*
X0354418Y0076674D01*
X0354574Y0076646D01*
X0354729Y0076615D01*
X0354884Y0076579D01*
X0355037Y0076540D01*
X0355189Y0076497D01*
X0355340Y0076450D01*
X0355490Y0076399D01*
X0355639Y0076344D01*
X0355786Y0076286D01*
X0355932Y0076224D01*
X0356076Y0076159D01*
X0356218Y0076089D01*
X0356359Y0076017D01*
X0356498Y0075940D01*
X0356634Y0075861D01*
X0356769Y0075777D01*
X0356902Y0075691D01*
X0357032Y0075601D01*
X0357160Y0075508D01*
X0357286Y0075412D01*
X0357409Y0075312D01*
X0357530Y0075210D01*
X0357648Y0075105D01*
X0357763Y0074996D01*
X0357876Y0074885D01*
X0357986Y0074771D01*
X0358093Y0074654D01*
X0358197Y0074535D01*
X0358298Y0074413D01*
X0358395Y0074288D01*
X0358490Y0074161D01*
X0358581Y0074032D01*
X0358670Y0073901D01*
X0358754Y0073767D01*
X0358836Y0073631D01*
X0358914Y0073494D01*
X0358988Y0073354D01*
X0359059Y0073212D01*
X0359127Y0073069D01*
X0359191Y0072924D01*
X0359251Y0072778D01*
X0359307Y0072630D01*
X0359360Y0072481D01*
X0359409Y0072330D01*
X0359454Y0072178D01*
X0359495Y0072025D01*
X0359533Y0071872D01*
X0359566Y0071717D01*
X0359596Y0071561D01*
X0359622Y0071405D01*
X0359643Y0071248D01*
X0359661Y0071091D01*
X0359675Y0070933D01*
X0359685Y0070775D01*
X0359691Y0070617D01*
X0359693Y0070459D01*
X0359691Y0070301D01*
X0359685Y0070143D01*
X0359675Y0069985D01*
X0359661Y0069827D01*
X0359643Y0069670D01*
X0359622Y0069513D01*
X0359596Y0069357D01*
X0359566Y0069201D01*
X0359533Y0069046D01*
X0359495Y0068893D01*
X0359454Y0068740D01*
X0359409Y0068588D01*
X0359360Y0068437D01*
X0359307Y0068288D01*
X0359251Y0068140D01*
X0359191Y0067994D01*
X0359127Y0067849D01*
X0359059Y0067706D01*
X0358988Y0067564D01*
X0358914Y0067424D01*
X0358836Y0067287D01*
X0358754Y0067151D01*
X0358670Y0067017D01*
X0358581Y0066886D01*
X0358490Y0066757D01*
X0358395Y0066630D01*
X0358298Y0066505D01*
X0358197Y0066383D01*
X0358093Y0066264D01*
X0357986Y0066147D01*
X0357876Y0066033D01*
X0357763Y0065922D01*
X0357648Y0065813D01*
X0357530Y0065708D01*
X0357409Y0065606D01*
X0357286Y0065506D01*
X0357160Y0065410D01*
X0357032Y0065317D01*
X0356902Y0065227D01*
X0356769Y0065141D01*
X0356634Y0065057D01*
X0356498Y0064978D01*
X0356359Y0064901D01*
X0356218Y0064829D01*
X0356076Y0064759D01*
X0355932Y0064694D01*
X0355786Y0064632D01*
X0355639Y0064574D01*
X0355490Y0064519D01*
X0355340Y0064468D01*
X0355189Y0064421D01*
X0355037Y0064378D01*
X0354884Y0064339D01*
X0354729Y0064303D01*
X0354574Y0064272D01*
X0354418Y0064244D01*
X0354262Y0064220D01*
X0354105Y0064200D01*
X0353947Y0064184D01*
X0353790Y0064172D01*
X0353631Y0064164D01*
X0353473Y0064160D01*
X0353315Y0064160D01*
X0353157Y0064164D01*
X0352998Y0064172D01*
X0352841Y0064184D01*
X0352683Y0064200D01*
X0352526Y0064220D01*
X0352370Y0064244D01*
X0352214Y0064272D01*
X0352059Y0064303D01*
X0351904Y0064339D01*
X0351751Y0064378D01*
X0351599Y0064421D01*
X0351448Y0064468D01*
X0351298Y0064519D01*
X0351149Y0064574D01*
X0351002Y0064632D01*
X0350856Y0064694D01*
X0350712Y0064759D01*
X0350570Y0064829D01*
X0350429Y0064901D01*
X0350290Y0064978D01*
X0350154Y0065057D01*
X0350019Y0065141D01*
X0349886Y0065227D01*
X0349756Y0065317D01*
X0349628Y0065410D01*
X0349502Y0065506D01*
X0349379Y0065606D01*
X0349258Y0065708D01*
X0349140Y0065813D01*
X0349025Y0065922D01*
X0348912Y0066033D01*
X0348802Y0066147D01*
X0348695Y0066264D01*
X0348591Y0066383D01*
X0348490Y0066505D01*
X0348393Y0066630D01*
X0348298Y0066757D01*
X0348207Y0066886D01*
X0348118Y0067017D01*
X0348034Y0067151D01*
X0347952Y0067287D01*
X0347874Y0067424D01*
X0347800Y0067564D01*
X0347729Y0067706D01*
X0347661Y0067849D01*
X0347597Y0067994D01*
X0347537Y0068140D01*
X0347481Y0068288D01*
X0347428Y0068437D01*
X0347379Y0068588D01*
X0347334Y0068740D01*
X0347293Y0068893D01*
X0347255Y0069046D01*
X0347222Y0069201D01*
X0347192Y0069357D01*
X0347166Y0069513D01*
X0347145Y0069670D01*
X0347127Y0069827D01*
X0347113Y0069985D01*
X0347103Y0070143D01*
X0347097Y0070301D01*
X0347095Y0070459D01*
X0353394Y0054711D02*
X0353775Y0054716D01*
X0354155Y0054729D01*
X0354535Y0054752D01*
X0354914Y0054785D01*
X0355292Y0054826D01*
X0355669Y0054876D01*
X0356045Y0054936D01*
X0356420Y0055004D01*
X0356792Y0055082D01*
X0357163Y0055169D01*
X0357531Y0055264D01*
X0357897Y0055369D01*
X0358260Y0055482D01*
X0358621Y0055604D01*
X0358978Y0055734D01*
X0359332Y0055874D01*
X0359683Y0056021D01*
X0360030Y0056178D01*
X0360373Y0056342D01*
X0360712Y0056515D01*
X0361047Y0056696D01*
X0361378Y0056885D01*
X0361703Y0057082D01*
X0362024Y0057286D01*
X0362340Y0057499D01*
X0362650Y0057719D01*
X0362956Y0057946D01*
X0363255Y0058181D01*
X0363549Y0058423D01*
X0363837Y0058671D01*
X0364119Y0058927D01*
X0364394Y0059190D01*
X0364663Y0059459D01*
X0364926Y0059734D01*
X0365182Y0060016D01*
X0365430Y0060304D01*
X0365672Y0060598D01*
X0365907Y0060897D01*
X0366134Y0061203D01*
X0366354Y0061513D01*
X0366567Y0061829D01*
X0366771Y0062150D01*
X0366968Y0062475D01*
X0367157Y0062806D01*
X0367338Y0063141D01*
X0367511Y0063480D01*
X0367675Y0063823D01*
X0367832Y0064170D01*
X0367979Y0064521D01*
X0368119Y0064875D01*
X0368249Y0065232D01*
X0368371Y0065593D01*
X0368484Y0065956D01*
X0368589Y0066322D01*
X0368684Y0066690D01*
X0368771Y0067061D01*
X0368849Y0067433D01*
X0368917Y0067808D01*
X0368977Y0068184D01*
X0369027Y0068561D01*
X0369068Y0068939D01*
X0369101Y0069318D01*
X0369124Y0069698D01*
X0369137Y0070078D01*
X0369142Y0070459D01*
X0369142Y0231877D01*
X0347095Y0231877D02*
X0347097Y0232035D01*
X0347103Y0232193D01*
X0347113Y0232351D01*
X0347127Y0232509D01*
X0347145Y0232666D01*
X0347166Y0232823D01*
X0347192Y0232979D01*
X0347222Y0233135D01*
X0347255Y0233290D01*
X0347293Y0233443D01*
X0347334Y0233596D01*
X0347379Y0233748D01*
X0347428Y0233899D01*
X0347481Y0234048D01*
X0347537Y0234196D01*
X0347597Y0234342D01*
X0347661Y0234487D01*
X0347729Y0234630D01*
X0347800Y0234772D01*
X0347874Y0234912D01*
X0347952Y0235049D01*
X0348034Y0235185D01*
X0348118Y0235319D01*
X0348207Y0235450D01*
X0348298Y0235579D01*
X0348393Y0235706D01*
X0348490Y0235831D01*
X0348591Y0235953D01*
X0348695Y0236072D01*
X0348802Y0236189D01*
X0348912Y0236303D01*
X0349025Y0236414D01*
X0349140Y0236523D01*
X0349258Y0236628D01*
X0349379Y0236730D01*
X0349502Y0236830D01*
X0349628Y0236926D01*
X0349756Y0237019D01*
X0349886Y0237109D01*
X0350019Y0237195D01*
X0350154Y0237279D01*
X0350290Y0237358D01*
X0350429Y0237435D01*
X0350570Y0237507D01*
X0350712Y0237577D01*
X0350856Y0237642D01*
X0351002Y0237704D01*
X0351149Y0237762D01*
X0351298Y0237817D01*
X0351448Y0237868D01*
X0351599Y0237915D01*
X0351751Y0237958D01*
X0351904Y0237997D01*
X0352059Y0238033D01*
X0352214Y0238064D01*
X0352370Y0238092D01*
X0352526Y0238116D01*
X0352683Y0238136D01*
X0352841Y0238152D01*
X0352998Y0238164D01*
X0353157Y0238172D01*
X0353315Y0238176D01*
X0353473Y0238176D01*
X0353631Y0238172D01*
X0353790Y0238164D01*
X0353947Y0238152D01*
X0354105Y0238136D01*
X0354262Y0238116D01*
X0354418Y0238092D01*
X0354574Y0238064D01*
X0354729Y0238033D01*
X0354884Y0237997D01*
X0355037Y0237958D01*
X0355189Y0237915D01*
X0355340Y0237868D01*
X0355490Y0237817D01*
X0355639Y0237762D01*
X0355786Y0237704D01*
X0355932Y0237642D01*
X0356076Y0237577D01*
X0356218Y0237507D01*
X0356359Y0237435D01*
X0356498Y0237358D01*
X0356634Y0237279D01*
X0356769Y0237195D01*
X0356902Y0237109D01*
X0357032Y0237019D01*
X0357160Y0236926D01*
X0357286Y0236830D01*
X0357409Y0236730D01*
X0357530Y0236628D01*
X0357648Y0236523D01*
X0357763Y0236414D01*
X0357876Y0236303D01*
X0357986Y0236189D01*
X0358093Y0236072D01*
X0358197Y0235953D01*
X0358298Y0235831D01*
X0358395Y0235706D01*
X0358490Y0235579D01*
X0358581Y0235450D01*
X0358670Y0235319D01*
X0358754Y0235185D01*
X0358836Y0235049D01*
X0358914Y0234912D01*
X0358988Y0234772D01*
X0359059Y0234630D01*
X0359127Y0234487D01*
X0359191Y0234342D01*
X0359251Y0234196D01*
X0359307Y0234048D01*
X0359360Y0233899D01*
X0359409Y0233748D01*
X0359454Y0233596D01*
X0359495Y0233443D01*
X0359533Y0233290D01*
X0359566Y0233135D01*
X0359596Y0232979D01*
X0359622Y0232823D01*
X0359643Y0232666D01*
X0359661Y0232509D01*
X0359675Y0232351D01*
X0359685Y0232193D01*
X0359691Y0232035D01*
X0359693Y0231877D01*
X0359691Y0231719D01*
X0359685Y0231561D01*
X0359675Y0231403D01*
X0359661Y0231245D01*
X0359643Y0231088D01*
X0359622Y0230931D01*
X0359596Y0230775D01*
X0359566Y0230619D01*
X0359533Y0230464D01*
X0359495Y0230311D01*
X0359454Y0230158D01*
X0359409Y0230006D01*
X0359360Y0229855D01*
X0359307Y0229706D01*
X0359251Y0229558D01*
X0359191Y0229412D01*
X0359127Y0229267D01*
X0359059Y0229124D01*
X0358988Y0228982D01*
X0358914Y0228842D01*
X0358836Y0228705D01*
X0358754Y0228569D01*
X0358670Y0228435D01*
X0358581Y0228304D01*
X0358490Y0228175D01*
X0358395Y0228048D01*
X0358298Y0227923D01*
X0358197Y0227801D01*
X0358093Y0227682D01*
X0357986Y0227565D01*
X0357876Y0227451D01*
X0357763Y0227340D01*
X0357648Y0227231D01*
X0357530Y0227126D01*
X0357409Y0227024D01*
X0357286Y0226924D01*
X0357160Y0226828D01*
X0357032Y0226735D01*
X0356902Y0226645D01*
X0356769Y0226559D01*
X0356634Y0226475D01*
X0356498Y0226396D01*
X0356359Y0226319D01*
X0356218Y0226247D01*
X0356076Y0226177D01*
X0355932Y0226112D01*
X0355786Y0226050D01*
X0355639Y0225992D01*
X0355490Y0225937D01*
X0355340Y0225886D01*
X0355189Y0225839D01*
X0355037Y0225796D01*
X0354884Y0225757D01*
X0354729Y0225721D01*
X0354574Y0225690D01*
X0354418Y0225662D01*
X0354262Y0225638D01*
X0354105Y0225618D01*
X0353947Y0225602D01*
X0353790Y0225590D01*
X0353631Y0225582D01*
X0353473Y0225578D01*
X0353315Y0225578D01*
X0353157Y0225582D01*
X0352998Y0225590D01*
X0352841Y0225602D01*
X0352683Y0225618D01*
X0352526Y0225638D01*
X0352370Y0225662D01*
X0352214Y0225690D01*
X0352059Y0225721D01*
X0351904Y0225757D01*
X0351751Y0225796D01*
X0351599Y0225839D01*
X0351448Y0225886D01*
X0351298Y0225937D01*
X0351149Y0225992D01*
X0351002Y0226050D01*
X0350856Y0226112D01*
X0350712Y0226177D01*
X0350570Y0226247D01*
X0350429Y0226319D01*
X0350290Y0226396D01*
X0350154Y0226475D01*
X0350019Y0226559D01*
X0349886Y0226645D01*
X0349756Y0226735D01*
X0349628Y0226828D01*
X0349502Y0226924D01*
X0349379Y0227024D01*
X0349258Y0227126D01*
X0349140Y0227231D01*
X0349025Y0227340D01*
X0348912Y0227451D01*
X0348802Y0227565D01*
X0348695Y0227682D01*
X0348591Y0227801D01*
X0348490Y0227923D01*
X0348393Y0228048D01*
X0348298Y0228175D01*
X0348207Y0228304D01*
X0348118Y0228435D01*
X0348034Y0228569D01*
X0347952Y0228705D01*
X0347874Y0228842D01*
X0347800Y0228982D01*
X0347729Y0229124D01*
X0347661Y0229267D01*
X0347597Y0229412D01*
X0347537Y0229558D01*
X0347481Y0229706D01*
X0347428Y0229855D01*
X0347379Y0230006D01*
X0347334Y0230158D01*
X0347293Y0230311D01*
X0347255Y0230464D01*
X0347222Y0230619D01*
X0347192Y0230775D01*
X0347166Y0230931D01*
X0347145Y0231088D01*
X0347127Y0231245D01*
X0347113Y0231403D01*
X0347103Y0231561D01*
X0347097Y0231719D01*
X0347095Y0231877D01*
X0353394Y0247625D02*
X0353775Y0247620D01*
X0354155Y0247607D01*
X0354535Y0247584D01*
X0354914Y0247551D01*
X0355292Y0247510D01*
X0355669Y0247460D01*
X0356045Y0247400D01*
X0356420Y0247332D01*
X0356792Y0247254D01*
X0357163Y0247167D01*
X0357531Y0247072D01*
X0357897Y0246967D01*
X0358260Y0246854D01*
X0358621Y0246732D01*
X0358978Y0246602D01*
X0359332Y0246462D01*
X0359683Y0246315D01*
X0360030Y0246158D01*
X0360373Y0245994D01*
X0360712Y0245821D01*
X0361047Y0245640D01*
X0361378Y0245451D01*
X0361703Y0245254D01*
X0362024Y0245050D01*
X0362340Y0244837D01*
X0362650Y0244617D01*
X0362956Y0244390D01*
X0363255Y0244155D01*
X0363549Y0243913D01*
X0363837Y0243665D01*
X0364119Y0243409D01*
X0364394Y0243146D01*
X0364663Y0242877D01*
X0364926Y0242602D01*
X0365182Y0242320D01*
X0365430Y0242032D01*
X0365672Y0241738D01*
X0365907Y0241439D01*
X0366134Y0241133D01*
X0366354Y0240823D01*
X0366567Y0240507D01*
X0366771Y0240186D01*
X0366968Y0239861D01*
X0367157Y0239530D01*
X0367338Y0239195D01*
X0367511Y0238856D01*
X0367675Y0238513D01*
X0367832Y0238166D01*
X0367979Y0237815D01*
X0368119Y0237461D01*
X0368249Y0237104D01*
X0368371Y0236743D01*
X0368484Y0236380D01*
X0368589Y0236014D01*
X0368684Y0235646D01*
X0368771Y0235275D01*
X0368849Y0234903D01*
X0368917Y0234528D01*
X0368977Y0234152D01*
X0369027Y0233775D01*
X0369068Y0233397D01*
X0369101Y0233018D01*
X0369124Y0232638D01*
X0369137Y0232258D01*
X0369142Y0231877D01*
X0353394Y0247625D02*
X0069929Y0247625D01*
X0063630Y0231877D02*
X0063632Y0232035D01*
X0063638Y0232193D01*
X0063648Y0232351D01*
X0063662Y0232509D01*
X0063680Y0232666D01*
X0063701Y0232823D01*
X0063727Y0232979D01*
X0063757Y0233135D01*
X0063790Y0233290D01*
X0063828Y0233443D01*
X0063869Y0233596D01*
X0063914Y0233748D01*
X0063963Y0233899D01*
X0064016Y0234048D01*
X0064072Y0234196D01*
X0064132Y0234342D01*
X0064196Y0234487D01*
X0064264Y0234630D01*
X0064335Y0234772D01*
X0064409Y0234912D01*
X0064487Y0235049D01*
X0064569Y0235185D01*
X0064653Y0235319D01*
X0064742Y0235450D01*
X0064833Y0235579D01*
X0064928Y0235706D01*
X0065025Y0235831D01*
X0065126Y0235953D01*
X0065230Y0236072D01*
X0065337Y0236189D01*
X0065447Y0236303D01*
X0065560Y0236414D01*
X0065675Y0236523D01*
X0065793Y0236628D01*
X0065914Y0236730D01*
X0066037Y0236830D01*
X0066163Y0236926D01*
X0066291Y0237019D01*
X0066421Y0237109D01*
X0066554Y0237195D01*
X0066689Y0237279D01*
X0066825Y0237358D01*
X0066964Y0237435D01*
X0067105Y0237507D01*
X0067247Y0237577D01*
X0067391Y0237642D01*
X0067537Y0237704D01*
X0067684Y0237762D01*
X0067833Y0237817D01*
X0067983Y0237868D01*
X0068134Y0237915D01*
X0068286Y0237958D01*
X0068439Y0237997D01*
X0068594Y0238033D01*
X0068749Y0238064D01*
X0068905Y0238092D01*
X0069061Y0238116D01*
X0069218Y0238136D01*
X0069376Y0238152D01*
X0069533Y0238164D01*
X0069692Y0238172D01*
X0069850Y0238176D01*
X0070008Y0238176D01*
X0070166Y0238172D01*
X0070325Y0238164D01*
X0070482Y0238152D01*
X0070640Y0238136D01*
X0070797Y0238116D01*
X0070953Y0238092D01*
X0071109Y0238064D01*
X0071264Y0238033D01*
X0071419Y0237997D01*
X0071572Y0237958D01*
X0071724Y0237915D01*
X0071875Y0237868D01*
X0072025Y0237817D01*
X0072174Y0237762D01*
X0072321Y0237704D01*
X0072467Y0237642D01*
X0072611Y0237577D01*
X0072753Y0237507D01*
X0072894Y0237435D01*
X0073033Y0237358D01*
X0073169Y0237279D01*
X0073304Y0237195D01*
X0073437Y0237109D01*
X0073567Y0237019D01*
X0073695Y0236926D01*
X0073821Y0236830D01*
X0073944Y0236730D01*
X0074065Y0236628D01*
X0074183Y0236523D01*
X0074298Y0236414D01*
X0074411Y0236303D01*
X0074521Y0236189D01*
X0074628Y0236072D01*
X0074732Y0235953D01*
X0074833Y0235831D01*
X0074930Y0235706D01*
X0075025Y0235579D01*
X0075116Y0235450D01*
X0075205Y0235319D01*
X0075289Y0235185D01*
X0075371Y0235049D01*
X0075449Y0234912D01*
X0075523Y0234772D01*
X0075594Y0234630D01*
X0075662Y0234487D01*
X0075726Y0234342D01*
X0075786Y0234196D01*
X0075842Y0234048D01*
X0075895Y0233899D01*
X0075944Y0233748D01*
X0075989Y0233596D01*
X0076030Y0233443D01*
X0076068Y0233290D01*
X0076101Y0233135D01*
X0076131Y0232979D01*
X0076157Y0232823D01*
X0076178Y0232666D01*
X0076196Y0232509D01*
X0076210Y0232351D01*
X0076220Y0232193D01*
X0076226Y0232035D01*
X0076228Y0231877D01*
X0076226Y0231719D01*
X0076220Y0231561D01*
X0076210Y0231403D01*
X0076196Y0231245D01*
X0076178Y0231088D01*
X0076157Y0230931D01*
X0076131Y0230775D01*
X0076101Y0230619D01*
X0076068Y0230464D01*
X0076030Y0230311D01*
X0075989Y0230158D01*
X0075944Y0230006D01*
X0075895Y0229855D01*
X0075842Y0229706D01*
X0075786Y0229558D01*
X0075726Y0229412D01*
X0075662Y0229267D01*
X0075594Y0229124D01*
X0075523Y0228982D01*
X0075449Y0228842D01*
X0075371Y0228705D01*
X0075289Y0228569D01*
X0075205Y0228435D01*
X0075116Y0228304D01*
X0075025Y0228175D01*
X0074930Y0228048D01*
X0074833Y0227923D01*
X0074732Y0227801D01*
X0074628Y0227682D01*
X0074521Y0227565D01*
X0074411Y0227451D01*
X0074298Y0227340D01*
X0074183Y0227231D01*
X0074065Y0227126D01*
X0073944Y0227024D01*
X0073821Y0226924D01*
X0073695Y0226828D01*
X0073567Y0226735D01*
X0073437Y0226645D01*
X0073304Y0226559D01*
X0073169Y0226475D01*
X0073033Y0226396D01*
X0072894Y0226319D01*
X0072753Y0226247D01*
X0072611Y0226177D01*
X0072467Y0226112D01*
X0072321Y0226050D01*
X0072174Y0225992D01*
X0072025Y0225937D01*
X0071875Y0225886D01*
X0071724Y0225839D01*
X0071572Y0225796D01*
X0071419Y0225757D01*
X0071264Y0225721D01*
X0071109Y0225690D01*
X0070953Y0225662D01*
X0070797Y0225638D01*
X0070640Y0225618D01*
X0070482Y0225602D01*
X0070325Y0225590D01*
X0070166Y0225582D01*
X0070008Y0225578D01*
X0069850Y0225578D01*
X0069692Y0225582D01*
X0069533Y0225590D01*
X0069376Y0225602D01*
X0069218Y0225618D01*
X0069061Y0225638D01*
X0068905Y0225662D01*
X0068749Y0225690D01*
X0068594Y0225721D01*
X0068439Y0225757D01*
X0068286Y0225796D01*
X0068134Y0225839D01*
X0067983Y0225886D01*
X0067833Y0225937D01*
X0067684Y0225992D01*
X0067537Y0226050D01*
X0067391Y0226112D01*
X0067247Y0226177D01*
X0067105Y0226247D01*
X0066964Y0226319D01*
X0066825Y0226396D01*
X0066689Y0226475D01*
X0066554Y0226559D01*
X0066421Y0226645D01*
X0066291Y0226735D01*
X0066163Y0226828D01*
X0066037Y0226924D01*
X0065914Y0227024D01*
X0065793Y0227126D01*
X0065675Y0227231D01*
X0065560Y0227340D01*
X0065447Y0227451D01*
X0065337Y0227565D01*
X0065230Y0227682D01*
X0065126Y0227801D01*
X0065025Y0227923D01*
X0064928Y0228048D01*
X0064833Y0228175D01*
X0064742Y0228304D01*
X0064653Y0228435D01*
X0064569Y0228569D01*
X0064487Y0228705D01*
X0064409Y0228842D01*
X0064335Y0228982D01*
X0064264Y0229124D01*
X0064196Y0229267D01*
X0064132Y0229412D01*
X0064072Y0229558D01*
X0064016Y0229706D01*
X0063963Y0229855D01*
X0063914Y0230006D01*
X0063869Y0230158D01*
X0063828Y0230311D01*
X0063790Y0230464D01*
X0063757Y0230619D01*
X0063727Y0230775D01*
X0063701Y0230931D01*
X0063680Y0231088D01*
X0063662Y0231245D01*
X0063648Y0231403D01*
X0063638Y0231561D01*
X0063632Y0231719D01*
X0063630Y0231877D01*
X0054181Y0231877D02*
X0054186Y0232258D01*
X0054199Y0232638D01*
X0054222Y0233018D01*
X0054255Y0233397D01*
X0054296Y0233775D01*
X0054346Y0234152D01*
X0054406Y0234528D01*
X0054474Y0234903D01*
X0054552Y0235275D01*
X0054639Y0235646D01*
X0054734Y0236014D01*
X0054839Y0236380D01*
X0054952Y0236743D01*
X0055074Y0237104D01*
X0055204Y0237461D01*
X0055344Y0237815D01*
X0055491Y0238166D01*
X0055648Y0238513D01*
X0055812Y0238856D01*
X0055985Y0239195D01*
X0056166Y0239530D01*
X0056355Y0239861D01*
X0056552Y0240186D01*
X0056756Y0240507D01*
X0056969Y0240823D01*
X0057189Y0241133D01*
X0057416Y0241439D01*
X0057651Y0241738D01*
X0057893Y0242032D01*
X0058141Y0242320D01*
X0058397Y0242602D01*
X0058660Y0242877D01*
X0058929Y0243146D01*
X0059204Y0243409D01*
X0059486Y0243665D01*
X0059774Y0243913D01*
X0060068Y0244155D01*
X0060367Y0244390D01*
X0060673Y0244617D01*
X0060983Y0244837D01*
X0061299Y0245050D01*
X0061620Y0245254D01*
X0061945Y0245451D01*
X0062276Y0245640D01*
X0062611Y0245821D01*
X0062950Y0245994D01*
X0063293Y0246158D01*
X0063640Y0246315D01*
X0063991Y0246462D01*
X0064345Y0246602D01*
X0064702Y0246732D01*
X0065063Y0246854D01*
X0065426Y0246967D01*
X0065792Y0247072D01*
X0066160Y0247167D01*
X0066531Y0247254D01*
X0066903Y0247332D01*
X0067278Y0247400D01*
X0067654Y0247460D01*
X0068031Y0247510D01*
X0068409Y0247551D01*
X0068788Y0247584D01*
X0069168Y0247607D01*
X0069548Y0247620D01*
X0069929Y0247625D01*
X0054181Y0231877D02*
X0054181Y0070459D01*
X0063630Y0070459D02*
X0063632Y0070617D01*
X0063638Y0070775D01*
X0063648Y0070933D01*
X0063662Y0071091D01*
X0063680Y0071248D01*
X0063701Y0071405D01*
X0063727Y0071561D01*
X0063757Y0071717D01*
X0063790Y0071872D01*
X0063828Y0072025D01*
X0063869Y0072178D01*
X0063914Y0072330D01*
X0063963Y0072481D01*
X0064016Y0072630D01*
X0064072Y0072778D01*
X0064132Y0072924D01*
X0064196Y0073069D01*
X0064264Y0073212D01*
X0064335Y0073354D01*
X0064409Y0073494D01*
X0064487Y0073631D01*
X0064569Y0073767D01*
X0064653Y0073901D01*
X0064742Y0074032D01*
X0064833Y0074161D01*
X0064928Y0074288D01*
X0065025Y0074413D01*
X0065126Y0074535D01*
X0065230Y0074654D01*
X0065337Y0074771D01*
X0065447Y0074885D01*
X0065560Y0074996D01*
X0065675Y0075105D01*
X0065793Y0075210D01*
X0065914Y0075312D01*
X0066037Y0075412D01*
X0066163Y0075508D01*
X0066291Y0075601D01*
X0066421Y0075691D01*
X0066554Y0075777D01*
X0066689Y0075861D01*
X0066825Y0075940D01*
X0066964Y0076017D01*
X0067105Y0076089D01*
X0067247Y0076159D01*
X0067391Y0076224D01*
X0067537Y0076286D01*
X0067684Y0076344D01*
X0067833Y0076399D01*
X0067983Y0076450D01*
X0068134Y0076497D01*
X0068286Y0076540D01*
X0068439Y0076579D01*
X0068594Y0076615D01*
X0068749Y0076646D01*
X0068905Y0076674D01*
X0069061Y0076698D01*
X0069218Y0076718D01*
X0069376Y0076734D01*
X0069533Y0076746D01*
X0069692Y0076754D01*
X0069850Y0076758D01*
X0070008Y0076758D01*
X0070166Y0076754D01*
X0070325Y0076746D01*
X0070482Y0076734D01*
X0070640Y0076718D01*
X0070797Y0076698D01*
X0070953Y0076674D01*
X0071109Y0076646D01*
X0071264Y0076615D01*
X0071419Y0076579D01*
X0071572Y0076540D01*
X0071724Y0076497D01*
X0071875Y0076450D01*
X0072025Y0076399D01*
X0072174Y0076344D01*
X0072321Y0076286D01*
X0072467Y0076224D01*
X0072611Y0076159D01*
X0072753Y0076089D01*
X0072894Y0076017D01*
X0073033Y0075940D01*
X0073169Y0075861D01*
X0073304Y0075777D01*
X0073437Y0075691D01*
X0073567Y0075601D01*
X0073695Y0075508D01*
X0073821Y0075412D01*
X0073944Y0075312D01*
X0074065Y0075210D01*
X0074183Y0075105D01*
X0074298Y0074996D01*
X0074411Y0074885D01*
X0074521Y0074771D01*
X0074628Y0074654D01*
X0074732Y0074535D01*
X0074833Y0074413D01*
X0074930Y0074288D01*
X0075025Y0074161D01*
X0075116Y0074032D01*
X0075205Y0073901D01*
X0075289Y0073767D01*
X0075371Y0073631D01*
X0075449Y0073494D01*
X0075523Y0073354D01*
X0075594Y0073212D01*
X0075662Y0073069D01*
X0075726Y0072924D01*
X0075786Y0072778D01*
X0075842Y0072630D01*
X0075895Y0072481D01*
X0075944Y0072330D01*
X0075989Y0072178D01*
X0076030Y0072025D01*
X0076068Y0071872D01*
X0076101Y0071717D01*
X0076131Y0071561D01*
X0076157Y0071405D01*
X0076178Y0071248D01*
X0076196Y0071091D01*
X0076210Y0070933D01*
X0076220Y0070775D01*
X0076226Y0070617D01*
X0076228Y0070459D01*
X0076226Y0070301D01*
X0076220Y0070143D01*
X0076210Y0069985D01*
X0076196Y0069827D01*
X0076178Y0069670D01*
X0076157Y0069513D01*
X0076131Y0069357D01*
X0076101Y0069201D01*
X0076068Y0069046D01*
X0076030Y0068893D01*
X0075989Y0068740D01*
X0075944Y0068588D01*
X0075895Y0068437D01*
X0075842Y0068288D01*
X0075786Y0068140D01*
X0075726Y0067994D01*
X0075662Y0067849D01*
X0075594Y0067706D01*
X0075523Y0067564D01*
X0075449Y0067424D01*
X0075371Y0067287D01*
X0075289Y0067151D01*
X0075205Y0067017D01*
X0075116Y0066886D01*
X0075025Y0066757D01*
X0074930Y0066630D01*
X0074833Y0066505D01*
X0074732Y0066383D01*
X0074628Y0066264D01*
X0074521Y0066147D01*
X0074411Y0066033D01*
X0074298Y0065922D01*
X0074183Y0065813D01*
X0074065Y0065708D01*
X0073944Y0065606D01*
X0073821Y0065506D01*
X0073695Y0065410D01*
X0073567Y0065317D01*
X0073437Y0065227D01*
X0073304Y0065141D01*
X0073169Y0065057D01*
X0073033Y0064978D01*
X0072894Y0064901D01*
X0072753Y0064829D01*
X0072611Y0064759D01*
X0072467Y0064694D01*
X0072321Y0064632D01*
X0072174Y0064574D01*
X0072025Y0064519D01*
X0071875Y0064468D01*
X0071724Y0064421D01*
X0071572Y0064378D01*
X0071419Y0064339D01*
X0071264Y0064303D01*
X0071109Y0064272D01*
X0070953Y0064244D01*
X0070797Y0064220D01*
X0070640Y0064200D01*
X0070482Y0064184D01*
X0070325Y0064172D01*
X0070166Y0064164D01*
X0070008Y0064160D01*
X0069850Y0064160D01*
X0069692Y0064164D01*
X0069533Y0064172D01*
X0069376Y0064184D01*
X0069218Y0064200D01*
X0069061Y0064220D01*
X0068905Y0064244D01*
X0068749Y0064272D01*
X0068594Y0064303D01*
X0068439Y0064339D01*
X0068286Y0064378D01*
X0068134Y0064421D01*
X0067983Y0064468D01*
X0067833Y0064519D01*
X0067684Y0064574D01*
X0067537Y0064632D01*
X0067391Y0064694D01*
X0067247Y0064759D01*
X0067105Y0064829D01*
X0066964Y0064901D01*
X0066825Y0064978D01*
X0066689Y0065057D01*
X0066554Y0065141D01*
X0066421Y0065227D01*
X0066291Y0065317D01*
X0066163Y0065410D01*
X0066037Y0065506D01*
X0065914Y0065606D01*
X0065793Y0065708D01*
X0065675Y0065813D01*
X0065560Y0065922D01*
X0065447Y0066033D01*
X0065337Y0066147D01*
X0065230Y0066264D01*
X0065126Y0066383D01*
X0065025Y0066505D01*
X0064928Y0066630D01*
X0064833Y0066757D01*
X0064742Y0066886D01*
X0064653Y0067017D01*
X0064569Y0067151D01*
X0064487Y0067287D01*
X0064409Y0067424D01*
X0064335Y0067564D01*
X0064264Y0067706D01*
X0064196Y0067849D01*
X0064132Y0067994D01*
X0064072Y0068140D01*
X0064016Y0068288D01*
X0063963Y0068437D01*
X0063914Y0068588D01*
X0063869Y0068740D01*
X0063828Y0068893D01*
X0063790Y0069046D01*
X0063757Y0069201D01*
X0063727Y0069357D01*
X0063701Y0069513D01*
X0063680Y0069670D01*
X0063662Y0069827D01*
X0063648Y0069985D01*
X0063638Y0070143D01*
X0063632Y0070301D01*
X0063630Y0070459D01*
X0054181Y0070459D02*
X0054186Y0070078D01*
X0054199Y0069698D01*
X0054222Y0069318D01*
X0054255Y0068939D01*
X0054296Y0068561D01*
X0054346Y0068184D01*
X0054406Y0067808D01*
X0054474Y0067433D01*
X0054552Y0067061D01*
X0054639Y0066690D01*
X0054734Y0066322D01*
X0054839Y0065956D01*
X0054952Y0065593D01*
X0055074Y0065232D01*
X0055204Y0064875D01*
X0055344Y0064521D01*
X0055491Y0064170D01*
X0055648Y0063823D01*
X0055812Y0063480D01*
X0055985Y0063141D01*
X0056166Y0062806D01*
X0056355Y0062475D01*
X0056552Y0062150D01*
X0056756Y0061829D01*
X0056969Y0061513D01*
X0057189Y0061203D01*
X0057416Y0060897D01*
X0057651Y0060598D01*
X0057893Y0060304D01*
X0058141Y0060016D01*
X0058397Y0059734D01*
X0058660Y0059459D01*
X0058929Y0059190D01*
X0059204Y0058927D01*
X0059486Y0058671D01*
X0059774Y0058423D01*
X0060068Y0058181D01*
X0060367Y0057946D01*
X0060673Y0057719D01*
X0060983Y0057499D01*
X0061299Y0057286D01*
X0061620Y0057082D01*
X0061945Y0056885D01*
X0062276Y0056696D01*
X0062611Y0056515D01*
X0062950Y0056342D01*
X0063293Y0056178D01*
X0063640Y0056021D01*
X0063991Y0055874D01*
X0064345Y0055734D01*
X0064702Y0055604D01*
X0065063Y0055482D01*
X0065426Y0055369D01*
X0065792Y0055264D01*
X0066160Y0055169D01*
X0066531Y0055082D01*
X0066903Y0055004D01*
X0067278Y0054936D01*
X0067654Y0054876D01*
X0068031Y0054826D01*
X0068409Y0054785D01*
X0068788Y0054752D01*
X0069168Y0054729D01*
X0069548Y0054716D01*
X0069929Y0054711D01*
X0073078Y0142507D02*
X0073080Y0142591D01*
X0073086Y0142674D01*
X0073096Y0142757D01*
X0073110Y0142840D01*
X0073127Y0142922D01*
X0073149Y0143003D01*
X0073174Y0143082D01*
X0073203Y0143161D01*
X0073236Y0143238D01*
X0073272Y0143313D01*
X0073312Y0143387D01*
X0073355Y0143459D01*
X0073402Y0143528D01*
X0073452Y0143595D01*
X0073505Y0143660D01*
X0073561Y0143722D01*
X0073619Y0143782D01*
X0073681Y0143839D01*
X0073745Y0143892D01*
X0073812Y0143943D01*
X0073881Y0143990D01*
X0073952Y0144035D01*
X0074025Y0144075D01*
X0074100Y0144112D01*
X0074177Y0144146D01*
X0074255Y0144176D01*
X0074334Y0144202D01*
X0074415Y0144225D01*
X0074497Y0144243D01*
X0074579Y0144258D01*
X0074662Y0144269D01*
X0074745Y0144276D01*
X0074829Y0144279D01*
X0074913Y0144278D01*
X0074996Y0144273D01*
X0075080Y0144264D01*
X0075162Y0144251D01*
X0075244Y0144235D01*
X0075325Y0144214D01*
X0075406Y0144190D01*
X0075484Y0144162D01*
X0075562Y0144130D01*
X0075638Y0144094D01*
X0075712Y0144055D01*
X0075784Y0144013D01*
X0075854Y0143967D01*
X0075922Y0143918D01*
X0075987Y0143866D01*
X0076050Y0143811D01*
X0076110Y0143753D01*
X0076168Y0143692D01*
X0076222Y0143628D01*
X0076274Y0143562D01*
X0076322Y0143494D01*
X0076367Y0143423D01*
X0076408Y0143350D01*
X0076447Y0143276D01*
X0076481Y0143200D01*
X0076512Y0143122D01*
X0076539Y0143043D01*
X0076563Y0142962D01*
X0076582Y0142881D01*
X0076598Y0142799D01*
X0076610Y0142716D01*
X0076618Y0142632D01*
X0076622Y0142549D01*
X0076622Y0142465D01*
X0076618Y0142382D01*
X0076610Y0142298D01*
X0076598Y0142215D01*
X0076582Y0142133D01*
X0076563Y0142052D01*
X0076539Y0141971D01*
X0076512Y0141892D01*
X0076481Y0141814D01*
X0076447Y0141738D01*
X0076408Y0141664D01*
X0076367Y0141591D01*
X0076322Y0141520D01*
X0076274Y0141452D01*
X0076222Y0141386D01*
X0076168Y0141322D01*
X0076110Y0141261D01*
X0076050Y0141203D01*
X0075987Y0141148D01*
X0075922Y0141096D01*
X0075854Y0141047D01*
X0075784Y0141001D01*
X0075712Y0140959D01*
X0075638Y0140920D01*
X0075562Y0140884D01*
X0075484Y0140852D01*
X0075406Y0140824D01*
X0075325Y0140800D01*
X0075244Y0140779D01*
X0075162Y0140763D01*
X0075080Y0140750D01*
X0074996Y0140741D01*
X0074913Y0140736D01*
X0074829Y0140735D01*
X0074745Y0140738D01*
X0074662Y0140745D01*
X0074579Y0140756D01*
X0074497Y0140771D01*
X0074415Y0140789D01*
X0074334Y0140812D01*
X0074255Y0140838D01*
X0074177Y0140868D01*
X0074100Y0140902D01*
X0074025Y0140939D01*
X0073952Y0140979D01*
X0073881Y0141024D01*
X0073812Y0141071D01*
X0073745Y0141122D01*
X0073681Y0141175D01*
X0073619Y0141232D01*
X0073561Y0141292D01*
X0073505Y0141354D01*
X0073452Y0141419D01*
X0073402Y0141486D01*
X0073355Y0141555D01*
X0073312Y0141627D01*
X0073272Y0141701D01*
X0073236Y0141776D01*
X0073203Y0141853D01*
X0073174Y0141932D01*
X0073149Y0142011D01*
X0073127Y0142092D01*
X0073110Y0142174D01*
X0073096Y0142257D01*
X0073086Y0142340D01*
X0073080Y0142423D01*
X0073078Y0142507D01*
X0073078Y0159830D02*
X0073080Y0159914D01*
X0073086Y0159997D01*
X0073096Y0160080D01*
X0073110Y0160163D01*
X0073127Y0160245D01*
X0073149Y0160326D01*
X0073174Y0160405D01*
X0073203Y0160484D01*
X0073236Y0160561D01*
X0073272Y0160636D01*
X0073312Y0160710D01*
X0073355Y0160782D01*
X0073402Y0160851D01*
X0073452Y0160918D01*
X0073505Y0160983D01*
X0073561Y0161045D01*
X0073619Y0161105D01*
X0073681Y0161162D01*
X0073745Y0161215D01*
X0073812Y0161266D01*
X0073881Y0161313D01*
X0073952Y0161358D01*
X0074025Y0161398D01*
X0074100Y0161435D01*
X0074177Y0161469D01*
X0074255Y0161499D01*
X0074334Y0161525D01*
X0074415Y0161548D01*
X0074497Y0161566D01*
X0074579Y0161581D01*
X0074662Y0161592D01*
X0074745Y0161599D01*
X0074829Y0161602D01*
X0074913Y0161601D01*
X0074996Y0161596D01*
X0075080Y0161587D01*
X0075162Y0161574D01*
X0075244Y0161558D01*
X0075325Y0161537D01*
X0075406Y0161513D01*
X0075484Y0161485D01*
X0075562Y0161453D01*
X0075638Y0161417D01*
X0075712Y0161378D01*
X0075784Y0161336D01*
X0075854Y0161290D01*
X0075922Y0161241D01*
X0075987Y0161189D01*
X0076050Y0161134D01*
X0076110Y0161076D01*
X0076168Y0161015D01*
X0076222Y0160951D01*
X0076274Y0160885D01*
X0076322Y0160817D01*
X0076367Y0160746D01*
X0076408Y0160673D01*
X0076447Y0160599D01*
X0076481Y0160523D01*
X0076512Y0160445D01*
X0076539Y0160366D01*
X0076563Y0160285D01*
X0076582Y0160204D01*
X0076598Y0160122D01*
X0076610Y0160039D01*
X0076618Y0159955D01*
X0076622Y0159872D01*
X0076622Y0159788D01*
X0076618Y0159705D01*
X0076610Y0159621D01*
X0076598Y0159538D01*
X0076582Y0159456D01*
X0076563Y0159375D01*
X0076539Y0159294D01*
X0076512Y0159215D01*
X0076481Y0159137D01*
X0076447Y0159061D01*
X0076408Y0158987D01*
X0076367Y0158914D01*
X0076322Y0158843D01*
X0076274Y0158775D01*
X0076222Y0158709D01*
X0076168Y0158645D01*
X0076110Y0158584D01*
X0076050Y0158526D01*
X0075987Y0158471D01*
X0075922Y0158419D01*
X0075854Y0158370D01*
X0075784Y0158324D01*
X0075712Y0158282D01*
X0075638Y0158243D01*
X0075562Y0158207D01*
X0075484Y0158175D01*
X0075406Y0158147D01*
X0075325Y0158123D01*
X0075244Y0158102D01*
X0075162Y0158086D01*
X0075080Y0158073D01*
X0074996Y0158064D01*
X0074913Y0158059D01*
X0074829Y0158058D01*
X0074745Y0158061D01*
X0074662Y0158068D01*
X0074579Y0158079D01*
X0074497Y0158094D01*
X0074415Y0158112D01*
X0074334Y0158135D01*
X0074255Y0158161D01*
X0074177Y0158191D01*
X0074100Y0158225D01*
X0074025Y0158262D01*
X0073952Y0158302D01*
X0073881Y0158347D01*
X0073812Y0158394D01*
X0073745Y0158445D01*
X0073681Y0158498D01*
X0073619Y0158555D01*
X0073561Y0158615D01*
X0073505Y0158677D01*
X0073452Y0158742D01*
X0073402Y0158809D01*
X0073355Y0158878D01*
X0073312Y0158950D01*
X0073272Y0159024D01*
X0073236Y0159099D01*
X0073203Y0159176D01*
X0073174Y0159255D01*
X0073149Y0159334D01*
X0073127Y0159415D01*
X0073110Y0159497D01*
X0073096Y0159580D01*
X0073086Y0159663D01*
X0073080Y0159746D01*
X0073078Y0159830D01*
D21*
X0219850Y0098452D03*
X0228512Y0094711D03*
X0219850Y0090971D03*
X0219850Y0083452D03*
X0228512Y0079711D03*
X0219850Y0075971D03*
D22*
X0236701Y0079711D03*
X0251661Y0079711D03*
X0251661Y0094711D03*
X0236701Y0094711D03*
X0091661Y0189711D03*
X0076701Y0189711D03*
D23*
X0280106Y0188550D03*
X0283256Y0188550D03*
X0283256Y0180873D03*
X0280106Y0180873D03*
D24*
X0276583Y0180873D03*
X0286780Y0180873D03*
X0286780Y0188550D03*
X0276583Y0188550D03*
D25*
X0254806Y0154948D03*
X0249806Y0154948D03*
X0244806Y0154948D03*
X0239806Y0154948D03*
X0225744Y0154948D03*
X0220744Y0154948D03*
X0215744Y0154948D03*
X0210744Y0154948D03*
X0210744Y0134475D03*
X0215744Y0134475D03*
X0220744Y0134475D03*
X0225744Y0134475D03*
X0239806Y0134475D03*
X0244806Y0134475D03*
X0249806Y0134475D03*
X0254806Y0134475D03*
D26*
X0267665Y0134081D03*
X0270224Y0134081D03*
X0272783Y0134081D03*
X0275343Y0134081D03*
X0277902Y0134081D03*
X0280461Y0134081D03*
X0283020Y0134081D03*
X0285579Y0134081D03*
X0288138Y0134081D03*
X0290697Y0134081D03*
X0290697Y0155341D03*
X0288138Y0155341D03*
X0285579Y0155341D03*
X0283020Y0155341D03*
X0280461Y0155341D03*
X0277902Y0155341D03*
X0275343Y0155341D03*
X0272783Y0155341D03*
X0270224Y0155341D03*
X0267665Y0155341D03*
D27*
X0195264Y0162152D03*
X0195264Y0164121D03*
X0195264Y0166089D03*
X0195264Y0168058D03*
X0195264Y0170026D03*
X0195264Y0171995D03*
X0195264Y0173963D03*
X0195264Y0175932D03*
X0195264Y0177900D03*
X0195264Y0179869D03*
X0195264Y0181837D03*
X0195264Y0183806D03*
X0195264Y0185774D03*
X0195264Y0187743D03*
X0195264Y0189711D03*
X0195264Y0191680D03*
X0150972Y0191680D03*
X0150972Y0189711D03*
X0150972Y0187743D03*
X0150972Y0185774D03*
X0150972Y0183806D03*
X0150972Y0181837D03*
X0150972Y0179869D03*
X0150972Y0177900D03*
X0150972Y0175932D03*
X0150972Y0173963D03*
X0150972Y0171995D03*
X0150972Y0170026D03*
X0150972Y0168058D03*
X0150972Y0166089D03*
X0150972Y0164121D03*
X0150972Y0162152D03*
D28*
X0158354Y0154770D03*
X0160323Y0154770D03*
X0162291Y0154770D03*
X0164260Y0154770D03*
X0166228Y0154770D03*
X0168197Y0154770D03*
X0170165Y0154770D03*
X0172134Y0154770D03*
X0174102Y0154770D03*
X0176071Y0154770D03*
X0178039Y0154770D03*
X0180008Y0154770D03*
X0181976Y0154770D03*
X0183945Y0154770D03*
X0185913Y0154770D03*
X0187882Y0154770D03*
X0187882Y0199062D03*
X0185913Y0199062D03*
X0183945Y0199062D03*
X0181976Y0199062D03*
X0180008Y0199062D03*
X0178039Y0199062D03*
X0176071Y0199062D03*
X0174102Y0199062D03*
X0172134Y0199062D03*
X0170165Y0199062D03*
X0168197Y0199062D03*
X0166228Y0199062D03*
X0164260Y0199062D03*
X0162291Y0199062D03*
X0160323Y0199062D03*
X0158354Y0199062D03*
D29*
X0164181Y0139711D03*
X0144181Y0139711D03*
D30*
X0145323Y0081877D03*
X0145323Y0066916D03*
X0120520Y0066916D03*
X0120520Y0081877D03*
X0278000Y0081877D03*
X0278000Y0066916D03*
X0302803Y0066916D03*
X0302803Y0081877D03*
M02*
