G75*
%MOIN*%
%OFA0B0*%
%FSLAX25Y25*%
%IPPOS*%
%LPD*%
%AMOC8*
5,1,8,0,0,1.08239X$1,22.5*
%
%ADD10R,0.04724X0.04724*%
%ADD11C,0.00000*%
D10*
X0113039Y0235814D03*
X0121307Y0235814D03*
X0176031Y0235814D03*
X0184299Y0235814D03*
X0239024Y0235814D03*
X0247291Y0235814D03*
X0302016Y0235814D03*
X0310283Y0235814D03*
D11*
X0353394Y0054711D02*
X0069929Y0054711D01*
X0063630Y0070459D02*
X0063632Y0070617D01*
X0063638Y0070775D01*
X0063648Y0070933D01*
X0063662Y0071091D01*
X0063680Y0071248D01*
X0063701Y0071405D01*
X0063727Y0071561D01*
X0063757Y0071717D01*
X0063790Y0071872D01*
X0063828Y0072025D01*
X0063869Y0072178D01*
X0063914Y0072330D01*
X0063963Y0072481D01*
X0064016Y0072630D01*
X0064072Y0072778D01*
X0064132Y0072924D01*
X0064196Y0073069D01*
X0064264Y0073212D01*
X0064335Y0073354D01*
X0064409Y0073494D01*
X0064487Y0073631D01*
X0064569Y0073767D01*
X0064653Y0073901D01*
X0064742Y0074032D01*
X0064833Y0074161D01*
X0064928Y0074288D01*
X0065025Y0074413D01*
X0065126Y0074535D01*
X0065230Y0074654D01*
X0065337Y0074771D01*
X0065447Y0074885D01*
X0065560Y0074996D01*
X0065675Y0075105D01*
X0065793Y0075210D01*
X0065914Y0075312D01*
X0066037Y0075412D01*
X0066163Y0075508D01*
X0066291Y0075601D01*
X0066421Y0075691D01*
X0066554Y0075777D01*
X0066689Y0075861D01*
X0066825Y0075940D01*
X0066964Y0076017D01*
X0067105Y0076089D01*
X0067247Y0076159D01*
X0067391Y0076224D01*
X0067537Y0076286D01*
X0067684Y0076344D01*
X0067833Y0076399D01*
X0067983Y0076450D01*
X0068134Y0076497D01*
X0068286Y0076540D01*
X0068439Y0076579D01*
X0068594Y0076615D01*
X0068749Y0076646D01*
X0068905Y0076674D01*
X0069061Y0076698D01*
X0069218Y0076718D01*
X0069376Y0076734D01*
X0069533Y0076746D01*
X0069692Y0076754D01*
X0069850Y0076758D01*
X0070008Y0076758D01*
X0070166Y0076754D01*
X0070325Y0076746D01*
X0070482Y0076734D01*
X0070640Y0076718D01*
X0070797Y0076698D01*
X0070953Y0076674D01*
X0071109Y0076646D01*
X0071264Y0076615D01*
X0071419Y0076579D01*
X0071572Y0076540D01*
X0071724Y0076497D01*
X0071875Y0076450D01*
X0072025Y0076399D01*
X0072174Y0076344D01*
X0072321Y0076286D01*
X0072467Y0076224D01*
X0072611Y0076159D01*
X0072753Y0076089D01*
X0072894Y0076017D01*
X0073033Y0075940D01*
X0073169Y0075861D01*
X0073304Y0075777D01*
X0073437Y0075691D01*
X0073567Y0075601D01*
X0073695Y0075508D01*
X0073821Y0075412D01*
X0073944Y0075312D01*
X0074065Y0075210D01*
X0074183Y0075105D01*
X0074298Y0074996D01*
X0074411Y0074885D01*
X0074521Y0074771D01*
X0074628Y0074654D01*
X0074732Y0074535D01*
X0074833Y0074413D01*
X0074930Y0074288D01*
X0075025Y0074161D01*
X0075116Y0074032D01*
X0075205Y0073901D01*
X0075289Y0073767D01*
X0075371Y0073631D01*
X0075449Y0073494D01*
X0075523Y0073354D01*
X0075594Y0073212D01*
X0075662Y0073069D01*
X0075726Y0072924D01*
X0075786Y0072778D01*
X0075842Y0072630D01*
X0075895Y0072481D01*
X0075944Y0072330D01*
X0075989Y0072178D01*
X0076030Y0072025D01*
X0076068Y0071872D01*
X0076101Y0071717D01*
X0076131Y0071561D01*
X0076157Y0071405D01*
X0076178Y0071248D01*
X0076196Y0071091D01*
X0076210Y0070933D01*
X0076220Y0070775D01*
X0076226Y0070617D01*
X0076228Y0070459D01*
X0076226Y0070301D01*
X0076220Y0070143D01*
X0076210Y0069985D01*
X0076196Y0069827D01*
X0076178Y0069670D01*
X0076157Y0069513D01*
X0076131Y0069357D01*
X0076101Y0069201D01*
X0076068Y0069046D01*
X0076030Y0068893D01*
X0075989Y0068740D01*
X0075944Y0068588D01*
X0075895Y0068437D01*
X0075842Y0068288D01*
X0075786Y0068140D01*
X0075726Y0067994D01*
X0075662Y0067849D01*
X0075594Y0067706D01*
X0075523Y0067564D01*
X0075449Y0067424D01*
X0075371Y0067287D01*
X0075289Y0067151D01*
X0075205Y0067017D01*
X0075116Y0066886D01*
X0075025Y0066757D01*
X0074930Y0066630D01*
X0074833Y0066505D01*
X0074732Y0066383D01*
X0074628Y0066264D01*
X0074521Y0066147D01*
X0074411Y0066033D01*
X0074298Y0065922D01*
X0074183Y0065813D01*
X0074065Y0065708D01*
X0073944Y0065606D01*
X0073821Y0065506D01*
X0073695Y0065410D01*
X0073567Y0065317D01*
X0073437Y0065227D01*
X0073304Y0065141D01*
X0073169Y0065057D01*
X0073033Y0064978D01*
X0072894Y0064901D01*
X0072753Y0064829D01*
X0072611Y0064759D01*
X0072467Y0064694D01*
X0072321Y0064632D01*
X0072174Y0064574D01*
X0072025Y0064519D01*
X0071875Y0064468D01*
X0071724Y0064421D01*
X0071572Y0064378D01*
X0071419Y0064339D01*
X0071264Y0064303D01*
X0071109Y0064272D01*
X0070953Y0064244D01*
X0070797Y0064220D01*
X0070640Y0064200D01*
X0070482Y0064184D01*
X0070325Y0064172D01*
X0070166Y0064164D01*
X0070008Y0064160D01*
X0069850Y0064160D01*
X0069692Y0064164D01*
X0069533Y0064172D01*
X0069376Y0064184D01*
X0069218Y0064200D01*
X0069061Y0064220D01*
X0068905Y0064244D01*
X0068749Y0064272D01*
X0068594Y0064303D01*
X0068439Y0064339D01*
X0068286Y0064378D01*
X0068134Y0064421D01*
X0067983Y0064468D01*
X0067833Y0064519D01*
X0067684Y0064574D01*
X0067537Y0064632D01*
X0067391Y0064694D01*
X0067247Y0064759D01*
X0067105Y0064829D01*
X0066964Y0064901D01*
X0066825Y0064978D01*
X0066689Y0065057D01*
X0066554Y0065141D01*
X0066421Y0065227D01*
X0066291Y0065317D01*
X0066163Y0065410D01*
X0066037Y0065506D01*
X0065914Y0065606D01*
X0065793Y0065708D01*
X0065675Y0065813D01*
X0065560Y0065922D01*
X0065447Y0066033D01*
X0065337Y0066147D01*
X0065230Y0066264D01*
X0065126Y0066383D01*
X0065025Y0066505D01*
X0064928Y0066630D01*
X0064833Y0066757D01*
X0064742Y0066886D01*
X0064653Y0067017D01*
X0064569Y0067151D01*
X0064487Y0067287D01*
X0064409Y0067424D01*
X0064335Y0067564D01*
X0064264Y0067706D01*
X0064196Y0067849D01*
X0064132Y0067994D01*
X0064072Y0068140D01*
X0064016Y0068288D01*
X0063963Y0068437D01*
X0063914Y0068588D01*
X0063869Y0068740D01*
X0063828Y0068893D01*
X0063790Y0069046D01*
X0063757Y0069201D01*
X0063727Y0069357D01*
X0063701Y0069513D01*
X0063680Y0069670D01*
X0063662Y0069827D01*
X0063648Y0069985D01*
X0063638Y0070143D01*
X0063632Y0070301D01*
X0063630Y0070459D01*
X0054181Y0070459D02*
X0054186Y0070078D01*
X0054199Y0069698D01*
X0054222Y0069318D01*
X0054255Y0068939D01*
X0054296Y0068561D01*
X0054346Y0068184D01*
X0054406Y0067808D01*
X0054474Y0067433D01*
X0054552Y0067061D01*
X0054639Y0066690D01*
X0054734Y0066322D01*
X0054839Y0065956D01*
X0054952Y0065593D01*
X0055074Y0065232D01*
X0055204Y0064875D01*
X0055344Y0064521D01*
X0055491Y0064170D01*
X0055648Y0063823D01*
X0055812Y0063480D01*
X0055985Y0063141D01*
X0056166Y0062806D01*
X0056355Y0062475D01*
X0056552Y0062150D01*
X0056756Y0061829D01*
X0056969Y0061513D01*
X0057189Y0061203D01*
X0057416Y0060897D01*
X0057651Y0060598D01*
X0057893Y0060304D01*
X0058141Y0060016D01*
X0058397Y0059734D01*
X0058660Y0059459D01*
X0058929Y0059190D01*
X0059204Y0058927D01*
X0059486Y0058671D01*
X0059774Y0058423D01*
X0060068Y0058181D01*
X0060367Y0057946D01*
X0060673Y0057719D01*
X0060983Y0057499D01*
X0061299Y0057286D01*
X0061620Y0057082D01*
X0061945Y0056885D01*
X0062276Y0056696D01*
X0062611Y0056515D01*
X0062950Y0056342D01*
X0063293Y0056178D01*
X0063640Y0056021D01*
X0063991Y0055874D01*
X0064345Y0055734D01*
X0064702Y0055604D01*
X0065063Y0055482D01*
X0065426Y0055369D01*
X0065792Y0055264D01*
X0066160Y0055169D01*
X0066531Y0055082D01*
X0066903Y0055004D01*
X0067278Y0054936D01*
X0067654Y0054876D01*
X0068031Y0054826D01*
X0068409Y0054785D01*
X0068788Y0054752D01*
X0069168Y0054729D01*
X0069548Y0054716D01*
X0069929Y0054711D01*
X0054181Y0070459D02*
X0054181Y0231877D01*
X0063630Y0231877D02*
X0063632Y0232035D01*
X0063638Y0232193D01*
X0063648Y0232351D01*
X0063662Y0232509D01*
X0063680Y0232666D01*
X0063701Y0232823D01*
X0063727Y0232979D01*
X0063757Y0233135D01*
X0063790Y0233290D01*
X0063828Y0233443D01*
X0063869Y0233596D01*
X0063914Y0233748D01*
X0063963Y0233899D01*
X0064016Y0234048D01*
X0064072Y0234196D01*
X0064132Y0234342D01*
X0064196Y0234487D01*
X0064264Y0234630D01*
X0064335Y0234772D01*
X0064409Y0234912D01*
X0064487Y0235049D01*
X0064569Y0235185D01*
X0064653Y0235319D01*
X0064742Y0235450D01*
X0064833Y0235579D01*
X0064928Y0235706D01*
X0065025Y0235831D01*
X0065126Y0235953D01*
X0065230Y0236072D01*
X0065337Y0236189D01*
X0065447Y0236303D01*
X0065560Y0236414D01*
X0065675Y0236523D01*
X0065793Y0236628D01*
X0065914Y0236730D01*
X0066037Y0236830D01*
X0066163Y0236926D01*
X0066291Y0237019D01*
X0066421Y0237109D01*
X0066554Y0237195D01*
X0066689Y0237279D01*
X0066825Y0237358D01*
X0066964Y0237435D01*
X0067105Y0237507D01*
X0067247Y0237577D01*
X0067391Y0237642D01*
X0067537Y0237704D01*
X0067684Y0237762D01*
X0067833Y0237817D01*
X0067983Y0237868D01*
X0068134Y0237915D01*
X0068286Y0237958D01*
X0068439Y0237997D01*
X0068594Y0238033D01*
X0068749Y0238064D01*
X0068905Y0238092D01*
X0069061Y0238116D01*
X0069218Y0238136D01*
X0069376Y0238152D01*
X0069533Y0238164D01*
X0069692Y0238172D01*
X0069850Y0238176D01*
X0070008Y0238176D01*
X0070166Y0238172D01*
X0070325Y0238164D01*
X0070482Y0238152D01*
X0070640Y0238136D01*
X0070797Y0238116D01*
X0070953Y0238092D01*
X0071109Y0238064D01*
X0071264Y0238033D01*
X0071419Y0237997D01*
X0071572Y0237958D01*
X0071724Y0237915D01*
X0071875Y0237868D01*
X0072025Y0237817D01*
X0072174Y0237762D01*
X0072321Y0237704D01*
X0072467Y0237642D01*
X0072611Y0237577D01*
X0072753Y0237507D01*
X0072894Y0237435D01*
X0073033Y0237358D01*
X0073169Y0237279D01*
X0073304Y0237195D01*
X0073437Y0237109D01*
X0073567Y0237019D01*
X0073695Y0236926D01*
X0073821Y0236830D01*
X0073944Y0236730D01*
X0074065Y0236628D01*
X0074183Y0236523D01*
X0074298Y0236414D01*
X0074411Y0236303D01*
X0074521Y0236189D01*
X0074628Y0236072D01*
X0074732Y0235953D01*
X0074833Y0235831D01*
X0074930Y0235706D01*
X0075025Y0235579D01*
X0075116Y0235450D01*
X0075205Y0235319D01*
X0075289Y0235185D01*
X0075371Y0235049D01*
X0075449Y0234912D01*
X0075523Y0234772D01*
X0075594Y0234630D01*
X0075662Y0234487D01*
X0075726Y0234342D01*
X0075786Y0234196D01*
X0075842Y0234048D01*
X0075895Y0233899D01*
X0075944Y0233748D01*
X0075989Y0233596D01*
X0076030Y0233443D01*
X0076068Y0233290D01*
X0076101Y0233135D01*
X0076131Y0232979D01*
X0076157Y0232823D01*
X0076178Y0232666D01*
X0076196Y0232509D01*
X0076210Y0232351D01*
X0076220Y0232193D01*
X0076226Y0232035D01*
X0076228Y0231877D01*
X0076226Y0231719D01*
X0076220Y0231561D01*
X0076210Y0231403D01*
X0076196Y0231245D01*
X0076178Y0231088D01*
X0076157Y0230931D01*
X0076131Y0230775D01*
X0076101Y0230619D01*
X0076068Y0230464D01*
X0076030Y0230311D01*
X0075989Y0230158D01*
X0075944Y0230006D01*
X0075895Y0229855D01*
X0075842Y0229706D01*
X0075786Y0229558D01*
X0075726Y0229412D01*
X0075662Y0229267D01*
X0075594Y0229124D01*
X0075523Y0228982D01*
X0075449Y0228842D01*
X0075371Y0228705D01*
X0075289Y0228569D01*
X0075205Y0228435D01*
X0075116Y0228304D01*
X0075025Y0228175D01*
X0074930Y0228048D01*
X0074833Y0227923D01*
X0074732Y0227801D01*
X0074628Y0227682D01*
X0074521Y0227565D01*
X0074411Y0227451D01*
X0074298Y0227340D01*
X0074183Y0227231D01*
X0074065Y0227126D01*
X0073944Y0227024D01*
X0073821Y0226924D01*
X0073695Y0226828D01*
X0073567Y0226735D01*
X0073437Y0226645D01*
X0073304Y0226559D01*
X0073169Y0226475D01*
X0073033Y0226396D01*
X0072894Y0226319D01*
X0072753Y0226247D01*
X0072611Y0226177D01*
X0072467Y0226112D01*
X0072321Y0226050D01*
X0072174Y0225992D01*
X0072025Y0225937D01*
X0071875Y0225886D01*
X0071724Y0225839D01*
X0071572Y0225796D01*
X0071419Y0225757D01*
X0071264Y0225721D01*
X0071109Y0225690D01*
X0070953Y0225662D01*
X0070797Y0225638D01*
X0070640Y0225618D01*
X0070482Y0225602D01*
X0070325Y0225590D01*
X0070166Y0225582D01*
X0070008Y0225578D01*
X0069850Y0225578D01*
X0069692Y0225582D01*
X0069533Y0225590D01*
X0069376Y0225602D01*
X0069218Y0225618D01*
X0069061Y0225638D01*
X0068905Y0225662D01*
X0068749Y0225690D01*
X0068594Y0225721D01*
X0068439Y0225757D01*
X0068286Y0225796D01*
X0068134Y0225839D01*
X0067983Y0225886D01*
X0067833Y0225937D01*
X0067684Y0225992D01*
X0067537Y0226050D01*
X0067391Y0226112D01*
X0067247Y0226177D01*
X0067105Y0226247D01*
X0066964Y0226319D01*
X0066825Y0226396D01*
X0066689Y0226475D01*
X0066554Y0226559D01*
X0066421Y0226645D01*
X0066291Y0226735D01*
X0066163Y0226828D01*
X0066037Y0226924D01*
X0065914Y0227024D01*
X0065793Y0227126D01*
X0065675Y0227231D01*
X0065560Y0227340D01*
X0065447Y0227451D01*
X0065337Y0227565D01*
X0065230Y0227682D01*
X0065126Y0227801D01*
X0065025Y0227923D01*
X0064928Y0228048D01*
X0064833Y0228175D01*
X0064742Y0228304D01*
X0064653Y0228435D01*
X0064569Y0228569D01*
X0064487Y0228705D01*
X0064409Y0228842D01*
X0064335Y0228982D01*
X0064264Y0229124D01*
X0064196Y0229267D01*
X0064132Y0229412D01*
X0064072Y0229558D01*
X0064016Y0229706D01*
X0063963Y0229855D01*
X0063914Y0230006D01*
X0063869Y0230158D01*
X0063828Y0230311D01*
X0063790Y0230464D01*
X0063757Y0230619D01*
X0063727Y0230775D01*
X0063701Y0230931D01*
X0063680Y0231088D01*
X0063662Y0231245D01*
X0063648Y0231403D01*
X0063638Y0231561D01*
X0063632Y0231719D01*
X0063630Y0231877D01*
X0054181Y0231877D02*
X0054186Y0232258D01*
X0054199Y0232638D01*
X0054222Y0233018D01*
X0054255Y0233397D01*
X0054296Y0233775D01*
X0054346Y0234152D01*
X0054406Y0234528D01*
X0054474Y0234903D01*
X0054552Y0235275D01*
X0054639Y0235646D01*
X0054734Y0236014D01*
X0054839Y0236380D01*
X0054952Y0236743D01*
X0055074Y0237104D01*
X0055204Y0237461D01*
X0055344Y0237815D01*
X0055491Y0238166D01*
X0055648Y0238513D01*
X0055812Y0238856D01*
X0055985Y0239195D01*
X0056166Y0239530D01*
X0056355Y0239861D01*
X0056552Y0240186D01*
X0056756Y0240507D01*
X0056969Y0240823D01*
X0057189Y0241133D01*
X0057416Y0241439D01*
X0057651Y0241738D01*
X0057893Y0242032D01*
X0058141Y0242320D01*
X0058397Y0242602D01*
X0058660Y0242877D01*
X0058929Y0243146D01*
X0059204Y0243409D01*
X0059486Y0243665D01*
X0059774Y0243913D01*
X0060068Y0244155D01*
X0060367Y0244390D01*
X0060673Y0244617D01*
X0060983Y0244837D01*
X0061299Y0245050D01*
X0061620Y0245254D01*
X0061945Y0245451D01*
X0062276Y0245640D01*
X0062611Y0245821D01*
X0062950Y0245994D01*
X0063293Y0246158D01*
X0063640Y0246315D01*
X0063991Y0246462D01*
X0064345Y0246602D01*
X0064702Y0246732D01*
X0065063Y0246854D01*
X0065426Y0246967D01*
X0065792Y0247072D01*
X0066160Y0247167D01*
X0066531Y0247254D01*
X0066903Y0247332D01*
X0067278Y0247400D01*
X0067654Y0247460D01*
X0068031Y0247510D01*
X0068409Y0247551D01*
X0068788Y0247584D01*
X0069168Y0247607D01*
X0069548Y0247620D01*
X0069929Y0247625D01*
X0353394Y0247625D01*
X0347095Y0231877D02*
X0347097Y0232035D01*
X0347103Y0232193D01*
X0347113Y0232351D01*
X0347127Y0232509D01*
X0347145Y0232666D01*
X0347166Y0232823D01*
X0347192Y0232979D01*
X0347222Y0233135D01*
X0347255Y0233290D01*
X0347293Y0233443D01*
X0347334Y0233596D01*
X0347379Y0233748D01*
X0347428Y0233899D01*
X0347481Y0234048D01*
X0347537Y0234196D01*
X0347597Y0234342D01*
X0347661Y0234487D01*
X0347729Y0234630D01*
X0347800Y0234772D01*
X0347874Y0234912D01*
X0347952Y0235049D01*
X0348034Y0235185D01*
X0348118Y0235319D01*
X0348207Y0235450D01*
X0348298Y0235579D01*
X0348393Y0235706D01*
X0348490Y0235831D01*
X0348591Y0235953D01*
X0348695Y0236072D01*
X0348802Y0236189D01*
X0348912Y0236303D01*
X0349025Y0236414D01*
X0349140Y0236523D01*
X0349258Y0236628D01*
X0349379Y0236730D01*
X0349502Y0236830D01*
X0349628Y0236926D01*
X0349756Y0237019D01*
X0349886Y0237109D01*
X0350019Y0237195D01*
X0350154Y0237279D01*
X0350290Y0237358D01*
X0350429Y0237435D01*
X0350570Y0237507D01*
X0350712Y0237577D01*
X0350856Y0237642D01*
X0351002Y0237704D01*
X0351149Y0237762D01*
X0351298Y0237817D01*
X0351448Y0237868D01*
X0351599Y0237915D01*
X0351751Y0237958D01*
X0351904Y0237997D01*
X0352059Y0238033D01*
X0352214Y0238064D01*
X0352370Y0238092D01*
X0352526Y0238116D01*
X0352683Y0238136D01*
X0352841Y0238152D01*
X0352998Y0238164D01*
X0353157Y0238172D01*
X0353315Y0238176D01*
X0353473Y0238176D01*
X0353631Y0238172D01*
X0353790Y0238164D01*
X0353947Y0238152D01*
X0354105Y0238136D01*
X0354262Y0238116D01*
X0354418Y0238092D01*
X0354574Y0238064D01*
X0354729Y0238033D01*
X0354884Y0237997D01*
X0355037Y0237958D01*
X0355189Y0237915D01*
X0355340Y0237868D01*
X0355490Y0237817D01*
X0355639Y0237762D01*
X0355786Y0237704D01*
X0355932Y0237642D01*
X0356076Y0237577D01*
X0356218Y0237507D01*
X0356359Y0237435D01*
X0356498Y0237358D01*
X0356634Y0237279D01*
X0356769Y0237195D01*
X0356902Y0237109D01*
X0357032Y0237019D01*
X0357160Y0236926D01*
X0357286Y0236830D01*
X0357409Y0236730D01*
X0357530Y0236628D01*
X0357648Y0236523D01*
X0357763Y0236414D01*
X0357876Y0236303D01*
X0357986Y0236189D01*
X0358093Y0236072D01*
X0358197Y0235953D01*
X0358298Y0235831D01*
X0358395Y0235706D01*
X0358490Y0235579D01*
X0358581Y0235450D01*
X0358670Y0235319D01*
X0358754Y0235185D01*
X0358836Y0235049D01*
X0358914Y0234912D01*
X0358988Y0234772D01*
X0359059Y0234630D01*
X0359127Y0234487D01*
X0359191Y0234342D01*
X0359251Y0234196D01*
X0359307Y0234048D01*
X0359360Y0233899D01*
X0359409Y0233748D01*
X0359454Y0233596D01*
X0359495Y0233443D01*
X0359533Y0233290D01*
X0359566Y0233135D01*
X0359596Y0232979D01*
X0359622Y0232823D01*
X0359643Y0232666D01*
X0359661Y0232509D01*
X0359675Y0232351D01*
X0359685Y0232193D01*
X0359691Y0232035D01*
X0359693Y0231877D01*
X0359691Y0231719D01*
X0359685Y0231561D01*
X0359675Y0231403D01*
X0359661Y0231245D01*
X0359643Y0231088D01*
X0359622Y0230931D01*
X0359596Y0230775D01*
X0359566Y0230619D01*
X0359533Y0230464D01*
X0359495Y0230311D01*
X0359454Y0230158D01*
X0359409Y0230006D01*
X0359360Y0229855D01*
X0359307Y0229706D01*
X0359251Y0229558D01*
X0359191Y0229412D01*
X0359127Y0229267D01*
X0359059Y0229124D01*
X0358988Y0228982D01*
X0358914Y0228842D01*
X0358836Y0228705D01*
X0358754Y0228569D01*
X0358670Y0228435D01*
X0358581Y0228304D01*
X0358490Y0228175D01*
X0358395Y0228048D01*
X0358298Y0227923D01*
X0358197Y0227801D01*
X0358093Y0227682D01*
X0357986Y0227565D01*
X0357876Y0227451D01*
X0357763Y0227340D01*
X0357648Y0227231D01*
X0357530Y0227126D01*
X0357409Y0227024D01*
X0357286Y0226924D01*
X0357160Y0226828D01*
X0357032Y0226735D01*
X0356902Y0226645D01*
X0356769Y0226559D01*
X0356634Y0226475D01*
X0356498Y0226396D01*
X0356359Y0226319D01*
X0356218Y0226247D01*
X0356076Y0226177D01*
X0355932Y0226112D01*
X0355786Y0226050D01*
X0355639Y0225992D01*
X0355490Y0225937D01*
X0355340Y0225886D01*
X0355189Y0225839D01*
X0355037Y0225796D01*
X0354884Y0225757D01*
X0354729Y0225721D01*
X0354574Y0225690D01*
X0354418Y0225662D01*
X0354262Y0225638D01*
X0354105Y0225618D01*
X0353947Y0225602D01*
X0353790Y0225590D01*
X0353631Y0225582D01*
X0353473Y0225578D01*
X0353315Y0225578D01*
X0353157Y0225582D01*
X0352998Y0225590D01*
X0352841Y0225602D01*
X0352683Y0225618D01*
X0352526Y0225638D01*
X0352370Y0225662D01*
X0352214Y0225690D01*
X0352059Y0225721D01*
X0351904Y0225757D01*
X0351751Y0225796D01*
X0351599Y0225839D01*
X0351448Y0225886D01*
X0351298Y0225937D01*
X0351149Y0225992D01*
X0351002Y0226050D01*
X0350856Y0226112D01*
X0350712Y0226177D01*
X0350570Y0226247D01*
X0350429Y0226319D01*
X0350290Y0226396D01*
X0350154Y0226475D01*
X0350019Y0226559D01*
X0349886Y0226645D01*
X0349756Y0226735D01*
X0349628Y0226828D01*
X0349502Y0226924D01*
X0349379Y0227024D01*
X0349258Y0227126D01*
X0349140Y0227231D01*
X0349025Y0227340D01*
X0348912Y0227451D01*
X0348802Y0227565D01*
X0348695Y0227682D01*
X0348591Y0227801D01*
X0348490Y0227923D01*
X0348393Y0228048D01*
X0348298Y0228175D01*
X0348207Y0228304D01*
X0348118Y0228435D01*
X0348034Y0228569D01*
X0347952Y0228705D01*
X0347874Y0228842D01*
X0347800Y0228982D01*
X0347729Y0229124D01*
X0347661Y0229267D01*
X0347597Y0229412D01*
X0347537Y0229558D01*
X0347481Y0229706D01*
X0347428Y0229855D01*
X0347379Y0230006D01*
X0347334Y0230158D01*
X0347293Y0230311D01*
X0347255Y0230464D01*
X0347222Y0230619D01*
X0347192Y0230775D01*
X0347166Y0230931D01*
X0347145Y0231088D01*
X0347127Y0231245D01*
X0347113Y0231403D01*
X0347103Y0231561D01*
X0347097Y0231719D01*
X0347095Y0231877D01*
X0353394Y0247625D02*
X0353775Y0247620D01*
X0354155Y0247607D01*
X0354535Y0247584D01*
X0354914Y0247551D01*
X0355292Y0247510D01*
X0355669Y0247460D01*
X0356045Y0247400D01*
X0356420Y0247332D01*
X0356792Y0247254D01*
X0357163Y0247167D01*
X0357531Y0247072D01*
X0357897Y0246967D01*
X0358260Y0246854D01*
X0358621Y0246732D01*
X0358978Y0246602D01*
X0359332Y0246462D01*
X0359683Y0246315D01*
X0360030Y0246158D01*
X0360373Y0245994D01*
X0360712Y0245821D01*
X0361047Y0245640D01*
X0361378Y0245451D01*
X0361703Y0245254D01*
X0362024Y0245050D01*
X0362340Y0244837D01*
X0362650Y0244617D01*
X0362956Y0244390D01*
X0363255Y0244155D01*
X0363549Y0243913D01*
X0363837Y0243665D01*
X0364119Y0243409D01*
X0364394Y0243146D01*
X0364663Y0242877D01*
X0364926Y0242602D01*
X0365182Y0242320D01*
X0365430Y0242032D01*
X0365672Y0241738D01*
X0365907Y0241439D01*
X0366134Y0241133D01*
X0366354Y0240823D01*
X0366567Y0240507D01*
X0366771Y0240186D01*
X0366968Y0239861D01*
X0367157Y0239530D01*
X0367338Y0239195D01*
X0367511Y0238856D01*
X0367675Y0238513D01*
X0367832Y0238166D01*
X0367979Y0237815D01*
X0368119Y0237461D01*
X0368249Y0237104D01*
X0368371Y0236743D01*
X0368484Y0236380D01*
X0368589Y0236014D01*
X0368684Y0235646D01*
X0368771Y0235275D01*
X0368849Y0234903D01*
X0368917Y0234528D01*
X0368977Y0234152D01*
X0369027Y0233775D01*
X0369068Y0233397D01*
X0369101Y0233018D01*
X0369124Y0232638D01*
X0369137Y0232258D01*
X0369142Y0231877D01*
X0369142Y0070459D01*
X0347095Y0070459D02*
X0347097Y0070617D01*
X0347103Y0070775D01*
X0347113Y0070933D01*
X0347127Y0071091D01*
X0347145Y0071248D01*
X0347166Y0071405D01*
X0347192Y0071561D01*
X0347222Y0071717D01*
X0347255Y0071872D01*
X0347293Y0072025D01*
X0347334Y0072178D01*
X0347379Y0072330D01*
X0347428Y0072481D01*
X0347481Y0072630D01*
X0347537Y0072778D01*
X0347597Y0072924D01*
X0347661Y0073069D01*
X0347729Y0073212D01*
X0347800Y0073354D01*
X0347874Y0073494D01*
X0347952Y0073631D01*
X0348034Y0073767D01*
X0348118Y0073901D01*
X0348207Y0074032D01*
X0348298Y0074161D01*
X0348393Y0074288D01*
X0348490Y0074413D01*
X0348591Y0074535D01*
X0348695Y0074654D01*
X0348802Y0074771D01*
X0348912Y0074885D01*
X0349025Y0074996D01*
X0349140Y0075105D01*
X0349258Y0075210D01*
X0349379Y0075312D01*
X0349502Y0075412D01*
X0349628Y0075508D01*
X0349756Y0075601D01*
X0349886Y0075691D01*
X0350019Y0075777D01*
X0350154Y0075861D01*
X0350290Y0075940D01*
X0350429Y0076017D01*
X0350570Y0076089D01*
X0350712Y0076159D01*
X0350856Y0076224D01*
X0351002Y0076286D01*
X0351149Y0076344D01*
X0351298Y0076399D01*
X0351448Y0076450D01*
X0351599Y0076497D01*
X0351751Y0076540D01*
X0351904Y0076579D01*
X0352059Y0076615D01*
X0352214Y0076646D01*
X0352370Y0076674D01*
X0352526Y0076698D01*
X0352683Y0076718D01*
X0352841Y0076734D01*
X0352998Y0076746D01*
X0353157Y0076754D01*
X0353315Y0076758D01*
X0353473Y0076758D01*
X0353631Y0076754D01*
X0353790Y0076746D01*
X0353947Y0076734D01*
X0354105Y0076718D01*
X0354262Y0076698D01*
X0354418Y0076674D01*
X0354574Y0076646D01*
X0354729Y0076615D01*
X0354884Y0076579D01*
X0355037Y0076540D01*
X0355189Y0076497D01*
X0355340Y0076450D01*
X0355490Y0076399D01*
X0355639Y0076344D01*
X0355786Y0076286D01*
X0355932Y0076224D01*
X0356076Y0076159D01*
X0356218Y0076089D01*
X0356359Y0076017D01*
X0356498Y0075940D01*
X0356634Y0075861D01*
X0356769Y0075777D01*
X0356902Y0075691D01*
X0357032Y0075601D01*
X0357160Y0075508D01*
X0357286Y0075412D01*
X0357409Y0075312D01*
X0357530Y0075210D01*
X0357648Y0075105D01*
X0357763Y0074996D01*
X0357876Y0074885D01*
X0357986Y0074771D01*
X0358093Y0074654D01*
X0358197Y0074535D01*
X0358298Y0074413D01*
X0358395Y0074288D01*
X0358490Y0074161D01*
X0358581Y0074032D01*
X0358670Y0073901D01*
X0358754Y0073767D01*
X0358836Y0073631D01*
X0358914Y0073494D01*
X0358988Y0073354D01*
X0359059Y0073212D01*
X0359127Y0073069D01*
X0359191Y0072924D01*
X0359251Y0072778D01*
X0359307Y0072630D01*
X0359360Y0072481D01*
X0359409Y0072330D01*
X0359454Y0072178D01*
X0359495Y0072025D01*
X0359533Y0071872D01*
X0359566Y0071717D01*
X0359596Y0071561D01*
X0359622Y0071405D01*
X0359643Y0071248D01*
X0359661Y0071091D01*
X0359675Y0070933D01*
X0359685Y0070775D01*
X0359691Y0070617D01*
X0359693Y0070459D01*
X0359691Y0070301D01*
X0359685Y0070143D01*
X0359675Y0069985D01*
X0359661Y0069827D01*
X0359643Y0069670D01*
X0359622Y0069513D01*
X0359596Y0069357D01*
X0359566Y0069201D01*
X0359533Y0069046D01*
X0359495Y0068893D01*
X0359454Y0068740D01*
X0359409Y0068588D01*
X0359360Y0068437D01*
X0359307Y0068288D01*
X0359251Y0068140D01*
X0359191Y0067994D01*
X0359127Y0067849D01*
X0359059Y0067706D01*
X0358988Y0067564D01*
X0358914Y0067424D01*
X0358836Y0067287D01*
X0358754Y0067151D01*
X0358670Y0067017D01*
X0358581Y0066886D01*
X0358490Y0066757D01*
X0358395Y0066630D01*
X0358298Y0066505D01*
X0358197Y0066383D01*
X0358093Y0066264D01*
X0357986Y0066147D01*
X0357876Y0066033D01*
X0357763Y0065922D01*
X0357648Y0065813D01*
X0357530Y0065708D01*
X0357409Y0065606D01*
X0357286Y0065506D01*
X0357160Y0065410D01*
X0357032Y0065317D01*
X0356902Y0065227D01*
X0356769Y0065141D01*
X0356634Y0065057D01*
X0356498Y0064978D01*
X0356359Y0064901D01*
X0356218Y0064829D01*
X0356076Y0064759D01*
X0355932Y0064694D01*
X0355786Y0064632D01*
X0355639Y0064574D01*
X0355490Y0064519D01*
X0355340Y0064468D01*
X0355189Y0064421D01*
X0355037Y0064378D01*
X0354884Y0064339D01*
X0354729Y0064303D01*
X0354574Y0064272D01*
X0354418Y0064244D01*
X0354262Y0064220D01*
X0354105Y0064200D01*
X0353947Y0064184D01*
X0353790Y0064172D01*
X0353631Y0064164D01*
X0353473Y0064160D01*
X0353315Y0064160D01*
X0353157Y0064164D01*
X0352998Y0064172D01*
X0352841Y0064184D01*
X0352683Y0064200D01*
X0352526Y0064220D01*
X0352370Y0064244D01*
X0352214Y0064272D01*
X0352059Y0064303D01*
X0351904Y0064339D01*
X0351751Y0064378D01*
X0351599Y0064421D01*
X0351448Y0064468D01*
X0351298Y0064519D01*
X0351149Y0064574D01*
X0351002Y0064632D01*
X0350856Y0064694D01*
X0350712Y0064759D01*
X0350570Y0064829D01*
X0350429Y0064901D01*
X0350290Y0064978D01*
X0350154Y0065057D01*
X0350019Y0065141D01*
X0349886Y0065227D01*
X0349756Y0065317D01*
X0349628Y0065410D01*
X0349502Y0065506D01*
X0349379Y0065606D01*
X0349258Y0065708D01*
X0349140Y0065813D01*
X0349025Y0065922D01*
X0348912Y0066033D01*
X0348802Y0066147D01*
X0348695Y0066264D01*
X0348591Y0066383D01*
X0348490Y0066505D01*
X0348393Y0066630D01*
X0348298Y0066757D01*
X0348207Y0066886D01*
X0348118Y0067017D01*
X0348034Y0067151D01*
X0347952Y0067287D01*
X0347874Y0067424D01*
X0347800Y0067564D01*
X0347729Y0067706D01*
X0347661Y0067849D01*
X0347597Y0067994D01*
X0347537Y0068140D01*
X0347481Y0068288D01*
X0347428Y0068437D01*
X0347379Y0068588D01*
X0347334Y0068740D01*
X0347293Y0068893D01*
X0347255Y0069046D01*
X0347222Y0069201D01*
X0347192Y0069357D01*
X0347166Y0069513D01*
X0347145Y0069670D01*
X0347127Y0069827D01*
X0347113Y0069985D01*
X0347103Y0070143D01*
X0347097Y0070301D01*
X0347095Y0070459D01*
X0353394Y0054711D02*
X0353775Y0054716D01*
X0354155Y0054729D01*
X0354535Y0054752D01*
X0354914Y0054785D01*
X0355292Y0054826D01*
X0355669Y0054876D01*
X0356045Y0054936D01*
X0356420Y0055004D01*
X0356792Y0055082D01*
X0357163Y0055169D01*
X0357531Y0055264D01*
X0357897Y0055369D01*
X0358260Y0055482D01*
X0358621Y0055604D01*
X0358978Y0055734D01*
X0359332Y0055874D01*
X0359683Y0056021D01*
X0360030Y0056178D01*
X0360373Y0056342D01*
X0360712Y0056515D01*
X0361047Y0056696D01*
X0361378Y0056885D01*
X0361703Y0057082D01*
X0362024Y0057286D01*
X0362340Y0057499D01*
X0362650Y0057719D01*
X0362956Y0057946D01*
X0363255Y0058181D01*
X0363549Y0058423D01*
X0363837Y0058671D01*
X0364119Y0058927D01*
X0364394Y0059190D01*
X0364663Y0059459D01*
X0364926Y0059734D01*
X0365182Y0060016D01*
X0365430Y0060304D01*
X0365672Y0060598D01*
X0365907Y0060897D01*
X0366134Y0061203D01*
X0366354Y0061513D01*
X0366567Y0061829D01*
X0366771Y0062150D01*
X0366968Y0062475D01*
X0367157Y0062806D01*
X0367338Y0063141D01*
X0367511Y0063480D01*
X0367675Y0063823D01*
X0367832Y0064170D01*
X0367979Y0064521D01*
X0368119Y0064875D01*
X0368249Y0065232D01*
X0368371Y0065593D01*
X0368484Y0065956D01*
X0368589Y0066322D01*
X0368684Y0066690D01*
X0368771Y0067061D01*
X0368849Y0067433D01*
X0368917Y0067808D01*
X0368977Y0068184D01*
X0369027Y0068561D01*
X0369068Y0068939D01*
X0369101Y0069318D01*
X0369124Y0069698D01*
X0369137Y0070078D01*
X0369142Y0070459D01*
X0070237Y0143294D02*
X0070239Y0143356D01*
X0070245Y0143419D01*
X0070255Y0143480D01*
X0070269Y0143541D01*
X0070286Y0143601D01*
X0070307Y0143660D01*
X0070333Y0143717D01*
X0070361Y0143772D01*
X0070393Y0143826D01*
X0070429Y0143877D01*
X0070467Y0143927D01*
X0070509Y0143973D01*
X0070553Y0144017D01*
X0070601Y0144058D01*
X0070650Y0144096D01*
X0070702Y0144130D01*
X0070756Y0144161D01*
X0070812Y0144189D01*
X0070870Y0144213D01*
X0070929Y0144234D01*
X0070989Y0144250D01*
X0071050Y0144263D01*
X0071112Y0144272D01*
X0071174Y0144277D01*
X0071237Y0144278D01*
X0071299Y0144275D01*
X0071361Y0144268D01*
X0071423Y0144257D01*
X0071483Y0144242D01*
X0071543Y0144224D01*
X0071601Y0144202D01*
X0071658Y0144176D01*
X0071713Y0144146D01*
X0071766Y0144113D01*
X0071817Y0144077D01*
X0071865Y0144038D01*
X0071911Y0143995D01*
X0071954Y0143950D01*
X0071994Y0143902D01*
X0072031Y0143852D01*
X0072065Y0143799D01*
X0072096Y0143745D01*
X0072122Y0143689D01*
X0072146Y0143631D01*
X0072165Y0143571D01*
X0072181Y0143511D01*
X0072193Y0143449D01*
X0072201Y0143388D01*
X0072205Y0143325D01*
X0072205Y0143263D01*
X0072201Y0143200D01*
X0072193Y0143139D01*
X0072181Y0143077D01*
X0072165Y0143017D01*
X0072146Y0142957D01*
X0072122Y0142899D01*
X0072096Y0142843D01*
X0072065Y0142789D01*
X0072031Y0142736D01*
X0071994Y0142686D01*
X0071954Y0142638D01*
X0071911Y0142593D01*
X0071865Y0142550D01*
X0071817Y0142511D01*
X0071766Y0142475D01*
X0071713Y0142442D01*
X0071658Y0142412D01*
X0071601Y0142386D01*
X0071543Y0142364D01*
X0071483Y0142346D01*
X0071423Y0142331D01*
X0071361Y0142320D01*
X0071299Y0142313D01*
X0071237Y0142310D01*
X0071174Y0142311D01*
X0071112Y0142316D01*
X0071050Y0142325D01*
X0070989Y0142338D01*
X0070929Y0142354D01*
X0070870Y0142375D01*
X0070812Y0142399D01*
X0070756Y0142427D01*
X0070702Y0142458D01*
X0070650Y0142492D01*
X0070601Y0142530D01*
X0070553Y0142571D01*
X0070509Y0142615D01*
X0070467Y0142661D01*
X0070429Y0142711D01*
X0070393Y0142762D01*
X0070361Y0142816D01*
X0070333Y0142871D01*
X0070307Y0142928D01*
X0070286Y0142987D01*
X0070269Y0143047D01*
X0070255Y0143108D01*
X0070245Y0143169D01*
X0070239Y0143232D01*
X0070237Y0143294D01*
X0070237Y0159042D02*
X0070239Y0159104D01*
X0070245Y0159167D01*
X0070255Y0159228D01*
X0070269Y0159289D01*
X0070286Y0159349D01*
X0070307Y0159408D01*
X0070333Y0159465D01*
X0070361Y0159520D01*
X0070393Y0159574D01*
X0070429Y0159625D01*
X0070467Y0159675D01*
X0070509Y0159721D01*
X0070553Y0159765D01*
X0070601Y0159806D01*
X0070650Y0159844D01*
X0070702Y0159878D01*
X0070756Y0159909D01*
X0070812Y0159937D01*
X0070870Y0159961D01*
X0070929Y0159982D01*
X0070989Y0159998D01*
X0071050Y0160011D01*
X0071112Y0160020D01*
X0071174Y0160025D01*
X0071237Y0160026D01*
X0071299Y0160023D01*
X0071361Y0160016D01*
X0071423Y0160005D01*
X0071483Y0159990D01*
X0071543Y0159972D01*
X0071601Y0159950D01*
X0071658Y0159924D01*
X0071713Y0159894D01*
X0071766Y0159861D01*
X0071817Y0159825D01*
X0071865Y0159786D01*
X0071911Y0159743D01*
X0071954Y0159698D01*
X0071994Y0159650D01*
X0072031Y0159600D01*
X0072065Y0159547D01*
X0072096Y0159493D01*
X0072122Y0159437D01*
X0072146Y0159379D01*
X0072165Y0159319D01*
X0072181Y0159259D01*
X0072193Y0159197D01*
X0072201Y0159136D01*
X0072205Y0159073D01*
X0072205Y0159011D01*
X0072201Y0158948D01*
X0072193Y0158887D01*
X0072181Y0158825D01*
X0072165Y0158765D01*
X0072146Y0158705D01*
X0072122Y0158647D01*
X0072096Y0158591D01*
X0072065Y0158537D01*
X0072031Y0158484D01*
X0071994Y0158434D01*
X0071954Y0158386D01*
X0071911Y0158341D01*
X0071865Y0158298D01*
X0071817Y0158259D01*
X0071766Y0158223D01*
X0071713Y0158190D01*
X0071658Y0158160D01*
X0071601Y0158134D01*
X0071543Y0158112D01*
X0071483Y0158094D01*
X0071423Y0158079D01*
X0071361Y0158068D01*
X0071299Y0158061D01*
X0071237Y0158058D01*
X0071174Y0158059D01*
X0071112Y0158064D01*
X0071050Y0158073D01*
X0070989Y0158086D01*
X0070929Y0158102D01*
X0070870Y0158123D01*
X0070812Y0158147D01*
X0070756Y0158175D01*
X0070702Y0158206D01*
X0070650Y0158240D01*
X0070601Y0158278D01*
X0070553Y0158319D01*
X0070509Y0158363D01*
X0070467Y0158409D01*
X0070429Y0158459D01*
X0070393Y0158510D01*
X0070361Y0158564D01*
X0070333Y0158619D01*
X0070307Y0158676D01*
X0070286Y0158735D01*
X0070269Y0158795D01*
X0070255Y0158856D01*
X0070245Y0158917D01*
X0070239Y0158980D01*
X0070237Y0159042D01*
M02*
