G75*
%MOIN*%
%OFA0B0*%
%FSLAX25Y25*%
%IPPOS*%
%LPD*%
%AMOC8*
5,1,8,0,0,1.08239X$1,22.5*
%
%ADD10R,0.05124X0.05124*%
%ADD11R,0.04337X0.04731*%
%ADD12R,0.07408X0.04416*%
%ADD13R,0.05912X0.06699*%
%ADD14R,0.01772X0.03937*%
%ADD15R,0.04731X0.04337*%
%ADD16R,0.02565X0.05124*%
%ADD17R,0.05124X0.02565*%
%ADD18R,0.02132X0.04928*%
%ADD19R,0.02880X0.04928*%
%ADD20R,0.02762X0.09061*%
%ADD21R,0.01778X0.06030*%
%ADD22R,0.06109X0.01463*%
%ADD23R,0.01463X0.06109*%
%ADD24R,0.05550X0.05550*%
%ADD25C,0.05550*%
%ADD26R,0.08400X0.08400*%
%ADD27C,0.12998*%
%ADD28R,0.07093X0.04337*%
%ADD29R,0.06825X0.06825*%
%ADD30C,0.06825*%
%ADD31R,0.06306X0.05715*%
%ADD32R,0.05912X0.05912*%
%ADD33R,0.05124X0.01975*%
%ADD34C,0.02369*%
%ADD35R,0.06837X0.06837*%
%ADD36C,0.06837*%
%ADD37R,0.02762X0.02762*%
%ADD38R,0.01975X0.02369*%
%ADD39R,0.04928X0.02132*%
%ADD40R,0.04928X0.02880*%
%ADD41R,0.06424X0.06424*%
%ADD42C,0.06424*%
D10*
X0113039Y0235814D03*
X0121307Y0235814D03*
X0176031Y0235814D03*
X0184299Y0235814D03*
X0239024Y0235814D03*
X0247291Y0235814D03*
X0302016Y0235814D03*
X0310283Y0235814D03*
D11*
X0292764Y0235814D03*
X0286071Y0235814D03*
X0229772Y0235814D03*
X0223079Y0235814D03*
X0200244Y0235814D03*
X0193551Y0235814D03*
X0204181Y0202608D03*
X0204181Y0195915D03*
X0204606Y0162145D03*
X0204606Y0155452D03*
X0190431Y0138058D03*
X0190431Y0131365D03*
X0177528Y0114711D03*
X0170835Y0114711D03*
X0162528Y0114711D03*
X0155835Y0114711D03*
X0170835Y0104711D03*
X0177528Y0104711D03*
X0185835Y0104711D03*
X0192528Y0104711D03*
X0208531Y0104608D03*
X0208531Y0097915D03*
X0192528Y0082524D03*
X0185835Y0082524D03*
X0177528Y0082524D03*
X0170835Y0082524D03*
X0119181Y0111365D03*
X0119181Y0118058D03*
X0094278Y0133111D03*
X0087585Y0133111D03*
X0087585Y0146643D03*
X0087622Y0151830D03*
X0094315Y0151830D03*
X0094278Y0146643D03*
X0058229Y0145263D03*
X0058229Y0157074D03*
X0130559Y0235814D03*
X0137252Y0235814D03*
X0261994Y0164308D03*
X0261994Y0157615D03*
X0261994Y0148058D03*
X0261994Y0141365D03*
X0232931Y0141365D03*
X0232931Y0148058D03*
X0298866Y0146168D03*
X0305559Y0146168D03*
X0268228Y0079211D03*
X0261535Y0079211D03*
D12*
X0096681Y0096207D03*
X0096681Y0103215D03*
D13*
X0105744Y0105617D03*
X0105744Y0093806D03*
X0182931Y0128806D03*
X0182931Y0140617D03*
D14*
X0239004Y0173196D03*
X0241563Y0173196D03*
X0244122Y0173196D03*
X0246681Y0173196D03*
X0249240Y0173196D03*
X0251799Y0173196D03*
X0254358Y0173196D03*
X0254358Y0196227D03*
X0251799Y0196227D03*
X0249240Y0196227D03*
X0246681Y0196227D03*
X0244122Y0196227D03*
X0241563Y0196227D03*
X0239004Y0196227D03*
D15*
X0230581Y0195915D03*
X0230581Y0202608D03*
X0232294Y0176533D03*
X0232294Y0169840D03*
X0223706Y0169840D03*
X0223706Y0176533D03*
X0150028Y0199711D03*
X0143335Y0199711D03*
X0127681Y0173208D03*
X0127681Y0166515D03*
X0137710Y0160024D03*
X0144403Y0160024D03*
X0144403Y0151899D03*
X0137710Y0151899D03*
X0140835Y0127524D03*
X0147528Y0127524D03*
X0155835Y0127524D03*
X0162528Y0127524D03*
X0170835Y0094711D03*
X0177528Y0094711D03*
X0177528Y0071899D03*
X0170835Y0071899D03*
X0261535Y0069411D03*
X0268228Y0069411D03*
X0276235Y0125761D03*
X0282928Y0125761D03*
X0097306Y0202665D03*
X0097306Y0209358D03*
X0089181Y0209358D03*
X0089181Y0202665D03*
D16*
X0112628Y0104830D03*
X0120109Y0104830D03*
X0120109Y0094593D03*
X0116369Y0094593D03*
X0112628Y0094593D03*
D17*
X0154063Y0095952D03*
X0154063Y0092211D03*
X0154063Y0088471D03*
X0164299Y0088471D03*
X0164299Y0095952D03*
X0164299Y0075639D03*
X0154063Y0075639D03*
X0154063Y0071899D03*
X0154063Y0068159D03*
X0164299Y0068159D03*
D18*
X0241256Y0085173D03*
X0244406Y0085173D03*
X0244406Y0092850D03*
X0241256Y0092850D03*
X0241256Y0104773D03*
X0244406Y0104773D03*
X0244406Y0112450D03*
X0241256Y0112450D03*
X0280106Y0180873D03*
X0283256Y0180873D03*
X0283256Y0188550D03*
X0280106Y0188550D03*
D19*
X0276583Y0188550D03*
X0276583Y0180873D03*
X0286780Y0180873D03*
X0286780Y0188550D03*
X0247930Y0112450D03*
X0237733Y0112450D03*
X0237733Y0104773D03*
X0247930Y0104773D03*
X0247930Y0092850D03*
X0237733Y0092850D03*
X0237733Y0085173D03*
X0247930Y0085173D03*
D20*
X0249806Y0134475D03*
X0244806Y0134475D03*
X0239806Y0134475D03*
X0225744Y0134475D03*
X0220744Y0134475D03*
X0215744Y0134475D03*
X0210744Y0134475D03*
X0210744Y0154948D03*
X0215744Y0154948D03*
X0220744Y0154948D03*
X0225744Y0154948D03*
X0239806Y0154948D03*
X0244806Y0154948D03*
X0249806Y0154948D03*
X0254806Y0154948D03*
X0254806Y0134475D03*
D21*
X0267665Y0134081D03*
X0270224Y0134081D03*
X0272783Y0134081D03*
X0275343Y0134081D03*
X0277902Y0134081D03*
X0280461Y0134081D03*
X0283020Y0134081D03*
X0285579Y0134081D03*
X0288138Y0134081D03*
X0290697Y0134081D03*
X0290697Y0155341D03*
X0288138Y0155341D03*
X0285579Y0155341D03*
X0283020Y0155341D03*
X0280461Y0155341D03*
X0277902Y0155341D03*
X0275343Y0155341D03*
X0272783Y0155341D03*
X0270224Y0155341D03*
X0267665Y0155341D03*
D22*
X0195264Y0162152D03*
X0195264Y0164121D03*
X0195264Y0166089D03*
X0195264Y0168058D03*
X0195264Y0170026D03*
X0195264Y0171995D03*
X0195264Y0173963D03*
X0195264Y0175932D03*
X0195264Y0177900D03*
X0195264Y0179869D03*
X0195264Y0181837D03*
X0195264Y0183806D03*
X0195264Y0185774D03*
X0195264Y0187743D03*
X0195264Y0189711D03*
X0195264Y0191680D03*
X0150972Y0191680D03*
X0150972Y0189711D03*
X0150972Y0187743D03*
X0150972Y0185774D03*
X0150972Y0183806D03*
X0150972Y0181837D03*
X0150972Y0179869D03*
X0150972Y0177900D03*
X0150972Y0175932D03*
X0150972Y0173963D03*
X0150972Y0171995D03*
X0150972Y0170026D03*
X0150972Y0168058D03*
X0150972Y0166089D03*
X0150972Y0164121D03*
X0150972Y0162152D03*
D23*
X0158354Y0154770D03*
X0160323Y0154770D03*
X0162291Y0154770D03*
X0164260Y0154770D03*
X0166228Y0154770D03*
X0168197Y0154770D03*
X0170165Y0154770D03*
X0172134Y0154770D03*
X0174102Y0154770D03*
X0176071Y0154770D03*
X0178039Y0154770D03*
X0180008Y0154770D03*
X0181976Y0154770D03*
X0183945Y0154770D03*
X0185913Y0154770D03*
X0187882Y0154770D03*
X0187882Y0199062D03*
X0185913Y0199062D03*
X0183945Y0199062D03*
X0181976Y0199062D03*
X0180008Y0199062D03*
X0178039Y0199062D03*
X0176071Y0199062D03*
X0174102Y0199062D03*
X0172134Y0199062D03*
X0170165Y0199062D03*
X0168197Y0199062D03*
X0166228Y0199062D03*
X0164260Y0199062D03*
X0162291Y0199062D03*
X0160323Y0199062D03*
X0158354Y0199062D03*
D24*
X0089181Y0224711D03*
D25*
X0099181Y0224711D03*
X0099181Y0234711D03*
X0089181Y0234711D03*
D26*
X0144181Y0139711D03*
X0164181Y0139711D03*
D27*
X0069929Y0070459D03*
X0069929Y0231877D03*
X0353394Y0231877D03*
X0353394Y0070459D03*
D28*
X0302803Y0066916D03*
X0302803Y0081877D03*
X0278000Y0081877D03*
X0278000Y0066916D03*
X0145323Y0066916D03*
X0145323Y0081877D03*
X0120520Y0081877D03*
X0120520Y0066916D03*
D29*
X0154281Y0217261D03*
D30*
X0164281Y0217261D03*
X0174281Y0217261D03*
X0184281Y0217261D03*
D31*
X0062756Y0167211D03*
X0062756Y0135125D03*
D32*
X0073386Y0137979D03*
X0073386Y0164357D03*
D33*
X0075197Y0156286D03*
X0075197Y0153727D03*
X0075197Y0151168D03*
X0075197Y0148609D03*
X0075197Y0146050D03*
D34*
X0071221Y0143294D03*
X0071221Y0159042D03*
D35*
X0317134Y0196168D03*
D36*
X0317134Y0186168D03*
X0317134Y0176168D03*
X0317134Y0166168D03*
X0317134Y0156168D03*
X0317134Y0146168D03*
X0317134Y0136168D03*
X0317134Y0126168D03*
X0317134Y0116168D03*
X0317134Y0106168D03*
D37*
X0221284Y0105068D03*
X0215378Y0105068D03*
X0215378Y0112155D03*
X0221284Y0112155D03*
X0221284Y0092555D03*
X0215378Y0092555D03*
X0215378Y0085468D03*
X0221284Y0085468D03*
D38*
X0218331Y0085468D03*
X0218331Y0092555D03*
X0218331Y0105068D03*
X0218331Y0112155D03*
D39*
X0298405Y0119899D03*
X0298405Y0123049D03*
X0306082Y0123049D03*
X0306082Y0119899D03*
D40*
X0306082Y0116375D03*
X0298405Y0116375D03*
X0298405Y0126572D03*
X0306082Y0126572D03*
D41*
X0291831Y0211511D03*
D42*
X0281831Y0211511D03*
X0271831Y0211511D03*
M02*
