%
M48
M72
T01C0.0197
T02C0.0200
T03C0.0230
T04C0.0315
T05C0.0402
T06C0.0429
T07C0.1260
%
T01
X7122Y14329
X7122Y15904
T02
X33593Y5961
X36533Y21396
X33593Y24336
X8603Y5961
X13258Y5961
X13418Y6690
X14856Y7159
X15418Y6471
X15953Y7186
X16566Y8166
X15418Y8471
X15918Y9221
X18262Y9471
X19262Y9940
X20241Y9851
X19842Y10647
X19146Y11306
X18168Y10971
X17606Y12034
X18293Y12252
X19597Y12821
X19783Y12199
X21098Y11780
X20916Y10944
X22078Y10861
X22568Y11106
X23242Y10494
X24163Y9967
X24712Y9881
X22752Y8962
X22354Y9851
X21986Y10157
X21159Y8962
X21833Y8166
X22877Y7793
X22139Y7033
X22568Y6686
X21098Y5961
X20363Y6329
X19231Y7596
X18606Y7596
X18146Y7709
X18146Y5964
X25602Y5956
X28938Y5961
X28938Y7403
X25602Y8344
X29734Y11198
X29244Y11841
X29074Y12320
X30041Y13127
X30347Y13617
X28953Y14247
X28142Y14352
X27881Y14646
X28439Y14920
X28892Y14982
X27897Y15026
X27247Y14469
X27070Y14107
X27486Y14066
X28061Y13909
X26648Y14589
X25263Y14291
X24712Y14107
X24481Y14721
X23618Y13667
X23303Y13066
X22078Y12760
X21588Y12699
X20118Y13556
X20792Y14169
X19959Y14617
X19322Y15210
X19768Y15511
X19376Y15792
X20026Y16098
X20123Y16691
X20700Y16925
X21312Y16741
X20945Y16251
X21894Y16251
X22774Y16544
X23237Y16545
X23821Y16601
X23606Y15914
X25799Y16085
X26739Y16079
X27099Y16534
X27412Y16221
X28012Y16846
X27729Y17127
X28796Y17471
X29551Y17537
X30347Y16741
X30681Y15110
X27106Y12681
X26733Y12320
X26243Y12320
X25851Y11884
X25508Y12320
X25881Y12895
X27627Y11976
X18941Y16909
X18158Y17047
X18771Y17292
X18767Y17866
X17882Y18119
X17607Y18395
X16930Y18019
X16964Y17446
X15769Y17997
X16066Y18822
X16419Y19032
X16759Y19285
X15967Y19329
X15524Y19620
X14483Y18701
X14483Y17966
X14483Y17568
X13903Y17377
X14266Y16909
X13918Y16721
X13020Y16053
X12921Y15516
X13258Y15516
X13136Y15123
X11911Y15271
X11666Y15026
X10288Y14327
X10288Y13664
X10808Y13311
X11918Y12346
X13106Y12221
X14106Y12221
X14918Y11471
X16262Y12252
X18262Y14621
X17701Y16064
X17443Y16434
X16352Y16252
X16011Y16252
X15324Y15846
X15674Y16855
X13658Y17959
X13258Y17844
X12952Y18242
X13854Y19972
X15463Y22682
X17178Y22621
X18902Y23581
X19628Y22131
X19352Y21672
X19762Y20190
X19134Y19929
X19016Y19436
X18379Y19106
X18403Y18701
X19971Y19388
X20302Y19130
X21387Y18659
X20637Y18284
X23048Y18966
X23512Y19627
X22568Y20171
X21098Y20171
X23949Y18471
X24467Y18885
X25018Y19130
X25018Y17844
X25906Y17813
X26488Y18089
X27107Y18284
X22813Y22621
X23430Y23581
X21098Y24336
X14178Y23581
X13258Y24336
X12603Y23581
X5908Y21641
X5784Y17439
X6826Y17439
X8051Y17439
X8047Y16414
X8668Y16236
X9241Y16236
X9731Y16236
X10288Y15946
X9731Y15736
X9219Y15736
X8668Y15736
X8047Y14560
X8047Y13841
X6826Y12857
X5784Y12857
X8047Y12857
X8668Y12221
X8668Y11721
X8668Y11221
X9668Y11221
X9668Y11721
X9668Y12221
X10563Y11167
X11324Y11096
X5908Y8656
X11698Y16489
X28938Y24336
X29729Y23581
X36533Y15026
X36533Y8656
T03
X21824Y17565
T04
X8918Y23471
X9918Y23471
X9918Y22471
X8918Y22471
T05
X15428Y21726
X16428Y21726
X17428Y21726
X18428Y21726
X27183Y21151
X28183Y21151
X29183Y21151
T06
X31713Y10617
X31713Y11617
X31713Y12617
X31713Y13617
X31713Y14617
X31713Y15617
X31713Y16617
X31713Y17617
X31713Y18617
X31713Y19617
T07
X35339Y7046
X35339Y23188
X6993Y23188
X6993Y7046
M30
